{"glyphs":{"0":{"ha":669,"x_min":0,"x_max":0,"o":"m 335 82 b 172 340 196 82 172 208 b 336 600 172 474 197 600 b 497 344 475 600 497 475 b 335 82 497 208 474 82 z m 335 -12 b 613 343 554 -12 613 143 b 336 693 613 542 556 693 b 56 340 115 693 56 539 b 335 -12 56 144 114 -12 z "},"1":{"ha":392,"x_min":0,"x_max":0,"o":"m 181 0 l 296 0 l 296 682 l 233 682 b 17 658 178 682 74 671 l 25 574 b 181 585 74 581 142 585 z "},"2":{"ha":528,"x_min":0,"x_max":0,"o":"m 42 0 l 488 0 l 488 94 l 194 94 l 401 374 b 464 533 447 438 464 479 b 239 693 464 644 396 693 b 65 675 174 693 115 685 l 69 583 b 224 600 125 593 179 600 b 349 526 313 600 349 575 b 308 439 349 503 340 483 l 42 67 z "},"3":{"ha":533,"x_min":0,"x_max":0,"o":"m 228 -218 b 481 108 403 -218 481 -147 b 301 378 481 308 432 378 l 256 378 l 453 608 l 453 681 l 24 681 l 24 588 l 308 588 l 121 367 l 121 293 l 244 293 b 364 92 344 293 364 228 b 224 -125 364 -79 315 -125 b 35 -101 151 -125 82 -112 l 31 -193 b 228 -218 74 -206 151 -218 z "},"4":{"ha":617,"x_min":0,"x_max":0,"o":"m 390 -204 l 507 -204 l 507 0 l 581 0 l 581 94 l 507 94 l 507 392 l 449 392 l 390 297 l 390 94 l 153 94 l 153 157 b 188 260 153 194 163 226 l 472 672 l 472 681 l 356 681 l 96 314 b 42 135 57 258 42 208 l 42 0 l 390 0 z "},"5":{"ha":544,"x_min":0,"x_max":0,"o":"m 243 -218 b 490 96 411 -218 490 -142 b 279 383 490 318 436 383 l 176 383 l 176 588 l 449 588 l 449 681 l 60 681 l 60 293 l 250 293 b 374 85 343 293 374 250 b 229 -125 374 -61 339 -125 b 56 -103 169 -125 96 -112 l 53 -196 b 243 -218 90 -206 169 -218 z "},"6":{"ha":615,"x_min":0,"x_max":0,"o":"m 307 -14 b 556 351 536 -14 556 144 b 429 585 556 442 517 519 l 304 675 l 444 869 l 357 936 l 350 936 l 176 690 b 60 351 97 581 60 483 b 307 -14 60 146 74 -14 z m 307 81 b 176 343 178 81 176 203 b 250 593 176 424 188 506 l 361 513 b 440 343 417 471 440 411 b 307 81 440 201 436 81 z "},"7":{"ha":521,"x_min":0,"x_max":0,"o":"m 114 -204 l 231 -204 l 231 13 b 275 150 231 74 251 117 l 443 386 b 485 536 471 425 485 468 l 485 681 l 11 681 l 11 588 l 371 588 l 371 542 b 344 446 371 501 364 472 l 176 210 b 114 21 146 167 114 103 z "},"8":{"ha":621,"x_min":0,"x_max":0,"o":"m 313 -14 b 574 224 481 -14 574 89 b 486 419 574 311 538 372 l 411 485 l 483 569 b 553 731 524 618 553 669 b 314 922 553 850 451 922 b 72 726 178 922 72 851 b 158 563 72 649 115 604 l 214 510 l 129 411 b 47 217 86 361 47 301 b 313 -14 47 89 143 -14 z m 311 81 b 164 225 222 81 164 140 b 213 351 164 276 188 321 l 292 446 l 404 350 b 460 225 435 322 460 288 b 311 81 460 135 396 81 z m 333 551 l 247 629 b 186 731 217 656 186 690 b 314 831 186 789 242 831 b 439 729 378 831 439 797 b 396 624 439 692 418 651 z "},"9":{"ha":608,"x_min":0,"x_max":0,"o":"m 242 -256 l 250 -256 l 428 -7 b 546 356 518 117 546 208 b 297 693 546 543 531 693 b 50 336 67 693 50 542 b 174 96 50 238 88 163 l 299 7 l 156 -189 z m 351 89 l 239 171 b 165 351 178 215 165 267 b 299 600 165 490 171 600 b 429 367 425 600 429 492 b 351 89 429 232 411 179 z "},"\u0000":{"ha":0,"x_min":0,"x_max":0,"o":""},"\r":{"ha":275,"x_min":0,"x_max":0,"o":""}," ":{"ha":275,"x_min":0,"x_max":0,"o":""},"A":{"ha":822,"x_min":0,"x_max":0,"o":"m 104 0 l 226 0 l 226 200 l 596 428 l 596 0 l 718 0 l 718 492 b 413 942 718 800 696 942 b 104 492 125 942 104 800 z m 226 331 l 226 497 b 411 838 226 754 239 838 b 596 558 571 838 594 767 z "},"B":{"ha":790,"x_min":0,"x_max":0,"o":"m 104 0 l 440 0 b 713 296 642 0 713 135 b 596 542 713 417 671 494 l 601 546 b 678 713 663 588 678 647 b 457 931 678 867 593 931 l 104 931 z m 226 106 l 226 303 l 506 476 b 596 297 564 444 596 385 b 439 106 596 203 557 106 z m 226 422 l 226 825 l 449 825 b 563 707 517 825 563 788 b 493 585 563 650 539 613 z "},"C":{"ha":665,"x_min":0,"x_max":0,"o":"m 401 -11 b 617 15 488 -11 574 4 l 615 124 b 408 97 567 111 475 97 b 203 460 218 97 203 210 b 407 833 203 718 218 833 b 600 821 472 833 544 828 l 604 928 b 413 942 551 935 475 942 b 79 451 122 942 79 789 b 401 -11 79 154 113 -11 z "},"D":{"ha":814,"x_min":0,"x_max":0,"o":"m 450 -7 b 732 500 694 -7 732 200 b 425 931 732 779 700 931 l 104 931 l 104 0 l 204 0 l 211 96 l 290 40 b 450 -7 331 13 376 -7 z m 438 104 b 318 144 392 104 357 117 l 226 210 l 226 825 l 419 825 b 608 497 592 825 608 714 b 438 104 608 232 583 104 z "},"E":{"ha":669,"x_min":0,"x_max":0,"o":"m 404 -11 b 629 18 496 -11 588 7 l 626 124 b 414 97 582 113 488 97 b 206 300 263 97 217 161 l 536 497 l 536 618 l 525 618 l 203 425 l 203 496 b 435 835 203 742 229 835 b 614 824 486 835 563 829 l 618 928 b 421 942 565 935 483 942 b 79 458 117 942 79 783 b 404 -11 79 158 113 -11 z "},"F":{"ha":663,"x_min":0,"x_max":0,"o":"m 104 0 l 226 0 l 226 297 l 558 496 l 558 618 l 547 618 l 226 428 l 226 565 b 446 835 226 781 254 835 b 638 822 515 835 599 828 l 640 926 b 426 942 603 932 514 942 b 104 547 154 942 104 853 z "},"G":{"ha":783,"x_min":0,"x_max":0,"o":"m 410 -11 b 688 36 517 -11 608 8 l 688 557 l 599 557 l 394 431 l 394 315 l 404 315 l 579 421 l 579 118 b 415 94 536 106 482 94 b 201 461 228 94 201 185 b 456 835 201 739 225 835 b 636 822 519 835 589 828 l 639 926 b 436 942 585 933 503 942 b 79 458 128 942 79 781 b 410 -11 79 122 132 -11 z "},"H":{"ha":822,"x_min":0,"x_max":0,"o":"m 104 0 l 226 0 l 226 231 l 596 458 l 596 0 l 718 0 l 718 931 l 596 931 l 596 593 l 226 364 l 226 931 l 104 931 z "},"I":{"ha":331,"x_min":0,"x_max":0,"o":"m 104 0 l 226 0 l 226 931 l 104 931 z "},"J":{"ha":557,"x_min":0,"x_max":0,"o":"m 189 -14 b 453 226 336 -14 453 47 l 453 931 l 329 931 l 329 222 b 182 96 329 140 285 96 b 54 114 151 96 107 100 l 50 6 b 189 -14 96 -7 143 -14 z "},"K":{"ha":740,"x_min":0,"x_max":0,"o":"m 104 0 l 226 0 l 226 406 l 303 503 l 499 300 b 563 113 551 246 563 193 l 563 0 l 685 0 l 685 113 b 594 371 685 215 674 285 l 375 603 l 501 774 b 593 821 528 810 543 821 l 656 821 l 660 935 l 579 935 b 425 858 499 935 465 915 l 226 593 l 226 931 l 104 931 z "},"L":{"ha":596,"x_min":0,"x_max":0,"o":"m 381 -11 b 572 14 461 -11 532 3 l 568 117 b 394 96 519 106 450 96 b 226 228 288 96 226 129 l 226 931 l 104 931 l 104 231 b 381 -11 104 35 236 -11 z "},"M":{"ha":1171,"x_min":0,"x_max":0,"o":"m 104 0 l 226 0 l 226 718 b 328 824 226 782 256 824 b 433 788 368 824 399 811 l 524 728 l 524 0 l 646 0 l 646 728 l 738 786 b 846 824 772 808 803 824 b 944 718 915 824 944 781 l 944 0 l 1067 0 l 1067 721 b 860 940 1067 867 996 940 b 689 886 786 940 742 919 l 585 819 l 483 888 b 311 940 435 921 382 940 b 104 721 172 940 104 861 z "},"N":{"ha":854,"x_min":0,"x_max":0,"o":"m 104 0 l 226 0 l 226 515 b 217 700 226 579 224 644 b 301 538 236 650 278 578 l 639 0 l 750 0 l 750 931 l 629 931 l 629 396 b 636 215 629 360 631 283 b 550 382 619 260 583 328 l 207 931 l 104 931 z "},"O":{"ha":788,"x_min":0,"x_max":0,"o":"m 394 97 b 201 469 214 97 201 229 b 394 833 201 703 213 833 b 586 469 575 833 586 703 b 394 97 586 229 574 97 z m 392 -11 b 708 472 668 -11 708 163 b 397 942 708 771 672 942 b 79 461 119 942 79 768 b 392 -11 79 163 117 -11 z "},"P":{"ha":715,"x_min":0,"x_max":0,"o":"m 104 0 l 226 0 l 226 224 l 538 419 b 685 685 654 494 685 585 b 436 931 685 864 578 931 l 104 931 z m 226 357 l 226 825 l 431 825 b 565 672 500 825 565 788 b 475 508 565 594 540 549 z "},"Q":{"ha":789,"x_min":0,"x_max":0,"o":"m 578 -228 b 749 -204 633 -228 710 -217 l 743 -104 b 588 -125 700 -115 635 -125 b 457 -6 489 -125 457 -85 b 708 471 671 24 708 172 b 397 942 708 769 672 942 b 79 460 119 942 79 767 b 344 -8 79 168 115 15 b 578 -228 344 -90 368 -228 z m 393 96 b 201 469 214 96 201 228 b 394 833 201 703 213 833 b 586 469 575 833 586 703 b 393 96 586 229 574 96 z "},"R":{"ha":744,"x_min":0,"x_max":0,"o":"m 104 0 l 226 0 l 226 231 l 374 319 l 582 0 l 717 0 l 717 10 l 471 386 l 539 426 b 685 685 656 503 685 586 b 436 931 685 854 594 931 l 104 931 z m 226 358 l 226 825 l 431 825 b 565 674 517 825 565 776 b 475 510 565 594 542 550 z "},"S":{"ha":651,"x_min":0,"x_max":0,"o":"m 297 -11 b 600 232 474 -11 600 51 b 446 478 600 313 576 388 l 268 600 b 178 728 201 646 178 682 b 356 832 181 808 264 832 b 554 804 422 832 492 819 l 556 915 b 354 942 500 928 431 942 b 63 731 201 942 69 888 b 192 497 56 636 96 563 l 371 374 b 483 219 451 319 483 276 b 297 99 483 131 411 99 b 63 132 210 99 121 117 l 61 22 b 297 -11 110 8 199 -11 z "},"T":{"ha":665,"x_min":0,"x_max":0,"o":"m 271 0 l 393 0 l 393 825 l 644 825 l 644 931 l 21 931 l 21 825 l 271 825 z "},"U":{"ha":822,"x_min":0,"x_max":0,"o":"m 413 -11 b 718 369 654 -11 718 96 l 718 931 l 596 931 l 596 372 b 413 97 596 182 575 97 b 226 372 249 97 226 182 l 226 931 l 104 931 l 104 369 b 413 -11 104 96 169 -11 z "},"V":{"ha":769,"x_min":0,"x_max":0,"o":"m 383 -10 b 590 140 500 -10 568 43 b 740 931 622 276 693 635 l 618 931 b 474 160 578 701 501 282 b 385 100 463 118 426 100 b 297 160 325 100 306 133 b 154 931 276 242 190 717 l 28 931 b 178 140 76 633 149 261 b 383 -10 201 43 267 -10 z "},"W":{"ha":1131,"x_min":0,"x_max":0,"o":"m 322 -10 b 472 43 386 -10 429 15 l 565 101 l 656 43 b 806 -10 703 13 747 -10 b 981 140 907 -10 965 56 b 1082 931 1008 303 1054 660 l 960 931 b 864 178 931 667 889 311 b 785 110 857 138 831 110 b 693 143 751 110 724 124 l 625 185 l 625 931 l 504 931 l 504 185 l 439 144 b 346 110 408 126 379 110 b 267 178 304 110 274 135 b 171 931 244 311 200 665 l 49 931 b 150 140 75 665 125 286 b 322 -10 161 71 210 -10 z "},"X":{"ha":700,"x_min":0,"x_max":0,"o":"m 13 0 l 139 0 l 350 361 l 557 0 l 693 0 l 693 10 l 424 478 l 679 922 l 679 931 l 553 931 l 354 588 l 156 931 l 18 931 l 18 922 l 279 468 l 13 10 z "},"Y":{"ha":738,"x_min":0,"x_max":0,"o":"m 308 0 l 429 0 l 429 303 b 676 656 628 322 676 421 l 676 931 l 553 931 l 553 650 b 371 406 553 472 521 406 b 183 650 219 406 183 472 l 183 931 l 61 931 l 61 657 b 308 303 61 421 117 322 z "},"Z":{"ha":674,"x_min":0,"x_max":0,"o":"m 46 0 l 635 0 l 635 106 l 192 106 l 631 850 l 631 931 l 61 931 l 61 825 l 482 825 l 42 81 z "},"À":{"ha":822,"x_min":0,"x_max":0,"o":"m 104 0 l 226 0 l 226 200 l 596 428 l 596 0 l 718 0 l 718 492 b 413 942 718 800 696 942 b 104 492 125 942 104 800 z m 226 331 l 226 497 b 411 838 226 754 239 838 b 596 558 571 838 594 767 z m 356 999 l 463 999 l 463 1007 l 325 1150 l 188 1150 l 188 1142 z "},"Á":{"ha":822,"x_min":0,"x_max":0,"o":"m 104 0 l 226 0 l 226 200 l 596 428 l 596 0 l 718 0 l 718 492 b 413 942 718 800 696 942 b 104 492 125 942 104 800 z m 226 331 l 226 497 b 411 838 226 754 239 838 b 596 558 571 838 594 767 z m 358 999 l 464 999 l 633 1142 l 633 1150 l 496 1150 l 358 1007 z "},"Â":{"ha":822,"x_min":0,"x_max":0,"o":"m 104 0 l 226 0 l 226 200 l 596 428 l 596 0 l 718 0 l 718 492 b 413 942 718 800 696 942 b 104 492 125 942 104 800 z m 226 331 l 226 497 b 411 838 226 754 239 838 b 596 558 571 838 594 767 z m 219 999 l 321 999 l 413 1085 l 504 999 l 604 999 l 604 1007 l 468 1154 l 358 1154 l 219 1007 z "},"Ã":{"ha":822,"x_min":0,"x_max":0,"o":"m 104 0 l 226 0 l 226 200 l 596 428 l 596 0 l 718 0 l 718 492 b 413 942 718 800 696 942 b 104 492 125 942 104 800 z m 226 331 l 226 497 b 411 838 226 754 239 838 b 596 558 571 838 594 767 z m 496 993 b 618 1093 553 993 596 1035 l 569 1143 l 561 1143 b 494 1082 549 1110 531 1082 b 338 1149 435 1082 415 1149 b 217 1061 276 1149 244 1108 l 263 1010 l 271 1010 b 338 1061 288 1040 307 1061 b 496 993 392 1061 417 993 z "},"Ä":{"ha":822,"x_min":0,"x_max":0,"o":"m 104 0 l 226 0 l 226 200 l 596 428 l 596 0 l 718 0 l 718 492 b 413 942 718 800 696 942 b 104 492 125 942 104 800 z m 226 331 l 226 497 b 411 838 226 754 239 838 b 596 558 571 838 594 767 z m 238 1010 l 343 1010 l 343 1126 l 238 1126 z m 482 1010 l 588 1010 l 588 1126 l 482 1126 z "},"Ā":{"ha":822,"x_min":0,"x_max":0,"o":"m 104 0 l 226 0 l 226 200 l 596 428 l 596 0 l 718 0 l 718 492 b 413 942 718 800 696 942 b 104 492 125 942 104 800 z m 226 331 l 226 497 b 411 838 226 754 239 838 b 596 558 571 838 594 767 z m 243 1019 l 582 1019 l 582 1104 l 243 1104 z "},"Ă":{"ha":822,"x_min":0,"x_max":0,"o":"m 104 0 l 226 0 l 226 200 l 596 428 l 596 0 l 718 0 l 718 492 b 413 942 718 800 696 942 b 104 492 125 942 104 800 z m 226 331 l 226 497 b 411 838 226 754 239 838 b 596 558 571 838 594 767 z m 413 990 b 593 1143 519 990 579 1046 l 517 1143 b 415 1075 508 1097 467 1075 b 311 1143 357 1075 318 1099 l 233 1143 b 413 990 247 1046 310 990 z "},"Å":{"ha":822,"x_min":0,"x_max":0,"o":"m 104 0 l 226 0 l 226 200 l 596 428 l 596 0 l 718 0 l 718 492 b 413 942 718 800 696 942 b 104 492 125 942 104 800 z m 226 331 l 226 497 b 411 838 226 754 239 838 b 596 558 571 838 594 767 z m 411 1033 b 347 1097 374 1033 347 1060 b 411 1163 347 1135 374 1163 b 476 1097 449 1163 476 1135 b 411 1033 476 1060 449 1033 z m 411 974 b 544 1097 492 974 544 1028 b 413 1221 544 1167 494 1221 b 279 1097 331 1221 279 1167 b 411 974 279 1028 329 974 z "},"Ą":{"ha":822,"x_min":0,"x_max":0,"o":"m 651 -256 b 735 -240 685 -256 715 -247 l 731 -171 b 668 -179 711 -175 689 -179 b 622 -135 639 -179 622 -165 b 718 0 622 -79 686 -25 l 718 492 b 413 942 718 800 696 942 b 104 492 125 942 104 800 l 104 0 l 226 0 l 226 200 l 596 428 l 596 0 l 631 0 b 533 -151 582 -36 533 -89 b 651 -256 533 -217 576 -256 z m 226 331 l 226 497 b 411 838 226 754 239 838 b 596 558 571 838 594 767 z "},"Æ":{"ha":1144,"x_min":0,"x_max":0,"o":"m 869 -11 b 1104 18 976 -11 1063 7 l 1103 124 b 879 97 1061 113 972 97 b 681 299 735 97 689 172 l 1011 497 l 1011 617 l 1000 617 l 678 424 l 678 496 b 894 835 678 728 703 835 b 1090 821 971 835 1050 826 l 1093 926 b 875 942 1053 933 969 942 b 638 854 758 942 685 911 b 411 942 608 893 557 942 b 104 492 125 942 104 799 l 104 0 l 226 0 l 226 200 l 556 403 b 869 -11 564 136 611 -11 z m 226 331 l 226 497 b 411 838 226 754 239 838 b 581 740 521 838 561 799 b 554 532 564 683 556 611 z "},"Ǽ":{"ha":1144,"x_min":0,"x_max":0,"o":"m 603 999 l 708 999 l 878 1142 l 878 1150 l 740 1150 l 603 1007 z m 869 -11 b 1104 18 976 -11 1063 7 l 1103 124 b 879 97 1061 113 972 97 b 681 299 735 97 689 172 l 1011 497 l 1011 617 l 1000 617 l 678 424 l 678 496 b 894 835 678 728 703 835 b 1090 821 971 835 1050 826 l 1093 926 b 875 942 1053 933 969 942 b 638 854 758 942 685 911 b 411 942 608 893 557 942 b 104 492 125 942 104 799 l 104 0 l 226 0 l 226 200 l 556 403 b 869 -11 564 136 611 -11 z m 226 331 l 226 497 b 411 838 226 754 239 838 b 581 740 521 838 561 799 b 554 532 564 683 556 611 z "},"Ć":{"ha":665,"x_min":0,"x_max":0,"o":"m 343 999 l 449 999 l 618 1142 l 618 1150 l 481 1150 l 343 1007 z m 401 -11 b 617 15 488 -11 574 4 l 615 124 b 408 97 567 111 475 97 b 203 460 218 97 203 210 b 407 833 203 718 218 833 b 600 821 472 833 544 828 l 604 928 b 413 942 551 935 475 942 b 79 451 122 942 79 789 b 401 -11 79 154 113 -11 z "},"Ĉ":{"ha":665,"x_min":0,"x_max":0,"o":"m 204 999 l 306 999 l 397 1085 l 489 999 l 589 999 l 589 1007 l 453 1154 l 343 1154 l 204 1007 z m 401 -11 b 617 15 488 -11 574 4 l 615 124 b 408 97 567 111 475 97 b 203 460 218 97 203 210 b 407 833 203 718 218 833 b 600 821 472 833 544 828 l 604 928 b 413 942 551 935 475 942 b 79 451 122 942 79 789 b 401 -11 79 154 113 -11 z "},"Č":{"ha":665,"x_min":0,"x_max":0,"o":"m 342 997 l 451 997 l 588 1144 l 588 1153 l 488 1153 l 396 1067 l 304 1153 l 203 1153 l 203 1144 z m 401 -11 b 617 15 488 -11 574 4 l 615 124 b 408 97 567 111 475 97 b 203 460 218 97 203 210 b 407 833 203 718 218 833 b 600 821 472 833 544 828 l 604 928 b 413 942 551 935 475 942 b 79 451 122 942 79 789 b 401 -11 79 154 113 -11 z "},"Ċ":{"ha":665,"x_min":0,"x_max":0,"o":"m 401 -11 b 617 15 488 -11 574 4 l 615 124 b 408 97 567 111 475 97 b 203 460 218 97 203 210 b 407 833 203 718 218 833 b 600 821 472 833 544 828 l 604 928 b 413 942 551 935 475 942 b 79 451 122 942 79 789 b 401 -11 79 154 113 -11 z m 396 1008 b 461 1068 436 1008 461 1029 b 396 1128 461 1107 436 1128 b 332 1068 356 1128 332 1107 b 396 1008 332 1029 356 1008 z "},"Ç":{"ha":665,"x_min":0,"x_max":0,"o":"m 333 -261 b 431 -49 497 -246 549 -107 l 431 -11 b 617 15 506 -8 578 6 l 615 124 b 408 97 567 111 475 97 b 203 460 218 97 203 210 b 407 833 203 718 218 833 b 600 821 472 833 544 828 l 604 928 b 413 942 551 935 475 942 b 79 451 122 942 79 789 b 346 -8 79 174 107 11 l 346 -78 b 296 -200 457 -125 400 -192 z "},"Ď":{"ha":814,"x_min":0,"x_max":0,"o":"m 333 997 l 443 997 l 579 1144 l 579 1153 l 479 1153 l 388 1067 l 296 1153 l 194 1153 l 194 1144 z m 450 -7 b 732 500 694 -7 732 200 b 425 931 732 779 700 931 l 104 931 l 104 0 l 204 0 l 211 96 l 290 40 b 450 -7 331 13 376 -7 z m 438 104 b 318 144 392 104 357 117 l 226 210 l 226 825 l 419 825 b 608 497 592 825 608 714 b 438 104 608 232 583 104 z "},"Đ":{"ha":814,"x_min":0,"x_max":0,"o":"m 0 424 l 104 424 l 104 0 l 204 0 l 211 96 l 290 40 b 450 -7 331 13 376 -7 b 732 500 694 -7 732 200 b 425 931 732 779 700 931 l 104 931 l 104 510 l 0 510 z m 438 104 b 318 144 392 104 357 117 l 226 210 l 226 424 l 408 424 l 408 510 l 226 510 l 226 825 l 419 825 b 608 497 592 825 608 714 b 438 104 608 232 583 104 z "},"È":{"ha":669,"x_min":0,"x_max":0,"o":"m 404 -11 b 629 18 496 -11 588 7 l 626 124 b 414 97 582 113 488 97 b 206 300 263 97 217 161 l 536 497 l 536 618 l 525 618 l 203 425 l 203 496 b 435 835 203 742 229 835 b 614 824 486 835 563 829 l 618 928 b 421 942 565 935 483 942 b 79 458 117 942 79 783 b 404 -11 79 158 113 -11 z m 349 999 l 456 999 l 456 1007 l 318 1150 l 181 1150 l 181 1142 z "},"É":{"ha":669,"x_min":0,"x_max":0,"o":"m 350 999 l 456 999 l 625 1142 l 625 1150 l 488 1150 l 350 1007 z m 404 -11 b 629 18 496 -11 588 7 l 626 124 b 414 97 582 113 488 97 b 206 300 263 97 217 161 l 536 497 l 536 618 l 525 618 l 203 425 l 203 496 b 435 835 203 742 229 835 b 614 824 486 835 563 829 l 618 928 b 421 942 565 935 483 942 b 79 458 117 942 79 783 b 404 -11 79 158 113 -11 z "},"Ê":{"ha":669,"x_min":0,"x_max":0,"o":"m 211 999 l 313 999 l 404 1085 l 496 999 l 596 999 l 596 1007 l 460 1154 l 350 1154 l 211 1007 z m 404 -11 b 629 18 496 -11 588 7 l 626 124 b 414 97 582 113 488 97 b 206 300 263 97 217 161 l 536 497 l 536 618 l 525 618 l 203 425 l 203 496 b 435 835 203 742 229 835 b 614 824 486 835 563 829 l 618 928 b 421 942 565 935 483 942 b 79 458 117 942 79 783 b 404 -11 79 158 113 -11 z "},"Ě":{"ha":669,"x_min":0,"x_max":0,"o":"m 350 997 l 460 997 l 596 1144 l 596 1153 l 496 1153 l 404 1067 l 313 1153 l 211 1153 l 211 1144 z m 404 -11 b 629 18 496 -11 588 7 l 626 124 b 414 97 582 113 488 97 b 206 300 263 97 217 161 l 536 497 l 536 618 l 525 618 l 203 425 l 203 496 b 435 835 203 742 229 835 b 614 824 486 835 563 829 l 618 928 b 421 942 565 935 483 942 b 79 458 117 942 79 783 b 404 -11 79 158 113 -11 z "},"Ë":{"ha":669,"x_min":0,"x_max":0,"o":"m 229 1010 l 335 1010 l 335 1126 l 229 1126 z m 474 1010 l 579 1010 l 579 1126 l 474 1126 z m 404 -11 b 629 18 496 -11 588 7 l 626 124 b 414 97 582 113 488 97 b 206 300 263 97 217 161 l 536 497 l 536 618 l 525 618 l 203 425 l 203 496 b 435 835 203 742 229 835 b 614 824 486 835 563 829 l 618 928 b 421 942 565 935 483 942 b 79 458 117 942 79 783 b 404 -11 79 158 113 -11 z "},"Ē":{"ha":669,"x_min":0,"x_max":0,"o":"m 404 -11 b 629 18 496 -11 588 7 l 626 124 b 414 97 582 113 488 97 b 206 300 263 97 217 161 l 536 497 l 536 618 l 525 618 l 203 425 l 203 496 b 435 835 203 742 229 835 b 614 824 486 835 563 829 l 618 928 b 421 942 565 935 483 942 b 79 458 117 942 79 783 b 404 -11 79 158 113 -11 z m 236 1019 l 575 1019 l 575 1104 l 236 1104 z "},"Ĕ":{"ha":669,"x_min":0,"x_max":0,"o":"m 404 -11 b 629 18 496 -11 588 7 l 626 124 b 414 97 582 113 488 97 b 206 300 263 97 217 161 l 536 497 l 536 618 l 525 618 l 203 425 l 203 496 b 435 835 203 742 229 835 b 614 824 486 835 563 829 l 618 928 b 421 942 565 935 483 942 b 79 458 117 942 79 783 b 404 -11 79 158 113 -11 z m 404 990 b 585 1143 511 990 571 1046 l 508 1143 b 407 1075 500 1097 458 1075 b 303 1143 349 1075 310 1099 l 225 1143 b 404 990 239 1046 301 990 z "},"Ė":{"ha":669,"x_min":0,"x_max":0,"o":"m 404 -11 b 629 18 496 -11 588 7 l 626 124 b 414 97 582 113 488 97 b 206 300 263 97 217 161 l 536 497 l 536 618 l 525 618 l 203 425 l 203 496 b 435 835 203 742 229 835 b 614 824 486 835 563 829 l 618 928 b 421 942 565 935 483 942 b 79 458 117 942 79 783 b 404 -11 79 158 113 -11 z m 403 1008 b 468 1068 443 1008 468 1029 b 403 1128 468 1107 443 1128 b 339 1068 363 1128 339 1107 b 403 1008 339 1029 363 1008 z "},"Ę":{"ha":669,"x_min":0,"x_max":0,"o":"m 404 -11 b 521 -3 444 -11 485 -7 b 426 -151 474 -39 426 -92 b 544 -256 426 -217 469 -256 b 628 -240 578 -256 608 -247 l 624 -171 b 561 -179 604 -175 582 -179 b 515 -135 532 -179 515 -165 b 629 18 515 -79 583 -18 l 626 124 b 414 97 582 113 488 97 b 206 300 263 97 217 161 l 536 497 l 536 618 l 525 618 l 203 425 l 203 496 b 435 835 203 742 229 835 b 614 824 486 835 563 829 l 618 928 b 421 942 565 935 483 942 b 79 458 117 942 79 783 b 404 -11 79 158 113 -11 z "},"Ĝ":{"ha":783,"x_min":0,"x_max":0,"o":"m 232 999 l 333 999 l 425 1085 l 517 999 l 617 999 l 617 1007 l 481 1154 l 371 1154 l 232 1007 z m 410 -11 b 688 36 517 -11 608 8 l 688 557 l 599 557 l 394 431 l 394 315 l 404 315 l 579 421 l 579 118 b 415 94 536 106 482 94 b 201 461 228 94 201 185 b 456 835 201 739 225 835 b 636 822 519 835 589 828 l 639 926 b 436 942 585 933 503 942 b 79 458 128 942 79 781 b 410 -11 79 122 132 -11 z "},"Ğ":{"ha":783,"x_min":0,"x_max":0,"o":"m 410 -11 b 688 36 517 -11 608 8 l 688 557 l 599 557 l 394 431 l 394 315 l 404 315 l 579 421 l 579 118 b 415 94 536 106 482 94 b 201 461 228 94 201 185 b 456 835 201 739 225 835 b 636 822 519 835 589 828 l 639 926 b 436 942 585 933 503 942 b 79 458 128 942 79 781 b 410 -11 79 122 132 -11 z m 425 990 b 606 1143 532 990 592 1046 l 529 1143 b 428 1075 521 1097 479 1075 b 324 1143 369 1075 331 1099 l 246 1143 b 425 990 260 1046 322 990 z "},"Ġ":{"ha":783,"x_min":0,"x_max":0,"o":"m 410 -11 b 688 36 517 -11 608 8 l 688 557 l 599 557 l 394 431 l 394 315 l 404 315 l 579 421 l 579 118 b 415 94 536 106 482 94 b 201 461 228 94 201 185 b 456 835 201 739 225 835 b 636 822 519 835 589 828 l 639 926 b 436 942 585 933 503 942 b 79 458 128 942 79 781 b 410 -11 79 122 132 -11 z m 424 1008 b 489 1068 464 1008 489 1029 b 424 1128 489 1107 464 1128 b 360 1068 383 1128 360 1107 b 424 1008 360 1029 383 1008 z "},"Ģ":{"ha":783,"x_min":0,"x_max":0,"o":"m 324 -269 l 399 -269 l 460 -101 l 460 -53 l 354 -53 z m 410 -11 b 688 36 517 -11 608 8 l 688 557 l 599 557 l 394 431 l 394 315 l 404 315 l 579 421 l 579 118 b 415 94 536 106 482 94 b 201 461 228 94 201 185 b 456 835 201 739 225 835 b 636 822 519 835 589 828 l 639 926 b 436 942 585 933 503 942 b 79 458 128 942 79 781 b 410 -11 79 122 132 -11 z "},"Ĥ":{"ha":822,"x_min":0,"x_max":0,"o":"m 218 999 l 319 999 l 411 1085 l 503 999 l 603 999 l 603 1007 l 467 1154 l 357 1154 l 218 1007 z m 104 0 l 226 0 l 226 231 l 596 458 l 596 0 l 718 0 l 718 931 l 596 931 l 596 593 l 226 364 l 226 931 l 104 931 z "},"Ħ":{"ha":822,"x_min":0,"x_max":0,"o":"m 104 0 l 226 0 l 226 231 l 596 458 l 596 0 l 718 0 l 718 779 l 775 779 l 775 864 l 718 864 l 718 931 l 596 931 l 596 864 l 226 864 l 226 931 l 104 931 l 104 864 l 47 864 l 47 779 l 104 779 z m 226 365 l 226 779 l 596 779 l 596 592 z "},"Ì":{"ha":331,"x_min":0,"x_max":0,"o":"m 104 0 l 226 0 l 226 931 l 104 931 z m 111 999 l 218 999 l 218 1007 l 81 1150 l -57 1150 l -57 1142 z "},"Í":{"ha":331,"x_min":0,"x_max":0,"o":"m 104 0 l 226 0 l 226 931 l 104 931 z m 114 999 l 219 999 l 389 1142 l 389 1150 l 251 1150 l 114 1007 z "},"Î":{"ha":331,"x_min":0,"x_max":0,"o":"m 104 0 l 226 0 l 226 931 l 104 931 z m -25 999 l 76 999 l 168 1085 l 260 999 l 360 999 l 360 1007 l 224 1154 l 114 1154 l -25 1007 z "},"Ĩ":{"ha":331,"x_min":0,"x_max":0,"o":"m 104 0 l 226 0 l 226 931 l 104 931 z m 251 993 b 374 1093 308 993 351 1035 l 325 1143 l 317 1143 b 250 1082 304 1110 286 1082 b 93 1149 190 1082 171 1149 b -28 1061 32 1149 0 1108 l 18 1010 l 26 1010 b 93 1061 43 1040 63 1061 b 251 993 147 1061 172 993 z "},"Ï":{"ha":331,"x_min":0,"x_max":0,"o":"m 104 0 l 226 0 l 226 931 l 104 931 z m -8 1010 l 97 1010 l 97 1126 l -8 1126 z m 236 1010 l 342 1010 l 342 1126 l 236 1126 z "},"Ī":{"ha":331,"x_min":0,"x_max":0,"o":"m 104 0 l 226 0 l 226 931 l 104 931 z m -1 1019 l 338 1019 l 338 1104 l -1 1104 z "},"Ĭ":{"ha":331,"x_min":0,"x_max":0,"o":"m 104 0 l 226 0 l 226 931 l 104 931 z m 167 990 b 347 1143 274 990 333 1046 l 271 1143 b 169 1075 263 1097 221 1075 b 65 1143 111 1075 72 1099 l -12 1143 b 167 990 1 1046 64 990 z "},"İ":{"ha":331,"x_min":0,"x_max":0,"o":"m 104 0 l 226 0 l 226 931 l 104 931 z m 167 1008 b 232 1068 207 1008 232 1029 b 167 1128 232 1107 207 1128 b 103 1068 126 1128 103 1107 b 167 1008 103 1029 126 1008 z "},"Į":{"ha":331,"x_min":0,"x_max":0,"o":"m 104 0 l 139 0 b 42 -151 90 -36 42 -89 b 160 -256 42 -217 85 -256 b 243 -240 193 -256 224 -247 l 239 -171 b 176 -179 219 -175 197 -179 b 131 -135 147 -179 131 -165 b 226 0 131 -79 194 -25 l 226 931 l 104 931 z "},"Ĳ":{"ha":868,"x_min":0,"x_max":0,"o":"m 104 0 l 226 0 l 226 931 l 104 931 z m 507 -14 b 771 226 654 -14 771 47 l 771 931 l 647 931 l 647 222 b 500 96 647 140 603 96 b 372 114 469 96 425 100 l 368 6 b 507 -14 414 -7 461 -14 z "},"Ĵ":{"ha":557,"x_min":0,"x_max":0,"o":"m 197 999 l 299 999 l 390 1085 l 482 999 l 582 999 l 582 1007 l 446 1154 l 336 1154 l 197 1007 z m 189 -14 b 453 226 336 -14 453 47 l 453 931 l 329 931 l 329 222 b 182 96 329 140 285 96 b 54 114 151 96 107 100 l 50 6 b 189 -14 96 -7 143 -14 z "},"Ķ":{"ha":740,"x_min":0,"x_max":0,"o":"m 311 -269 l 386 -269 l 447 -101 l 447 -53 l 342 -53 z m 104 0 l 226 0 l 226 406 l 303 503 l 499 300 b 563 113 551 246 563 193 l 563 0 l 685 0 l 685 113 b 594 371 685 215 674 285 l 375 603 l 501 774 b 593 821 528 810 543 821 l 656 821 l 660 935 l 579 935 b 425 858 499 935 465 915 l 226 593 l 226 931 l 104 931 z "},"Ĺ":{"ha":596,"x_min":0,"x_max":0,"o":"m 115 999 l 221 999 l 390 1142 l 390 1150 l 253 1150 l 115 1007 z m 381 -11 b 572 14 461 -11 532 3 l 568 117 b 394 96 519 106 450 96 b 226 228 288 96 226 129 l 226 931 l 104 931 l 104 231 b 381 -11 104 35 236 -11 z "},"Ľ":{"ha":596,"x_min":0,"x_max":0,"o":"m 376 706 l 451 706 l 513 874 l 513 922 l 407 922 z m 381 -11 b 572 14 461 -11 532 3 l 568 117 b 394 96 519 106 450 96 b 226 228 288 96 226 129 l 226 931 l 104 931 l 104 231 b 381 -11 104 35 236 -11 z "},"Ļ":{"ha":596,"x_min":0,"x_max":0,"o":"m 267 -289 l 342 -289 l 403 -121 l 403 -72 l 297 -72 z m 381 -11 b 572 14 461 -11 532 3 l 568 117 b 394 96 519 106 450 96 b 226 228 288 96 226 129 l 226 931 l 104 931 l 104 231 b 381 -11 104 35 236 -11 z "},"Ł":{"ha":596,"x_min":0,"x_max":0,"o":"m 381 -11 b 572 14 461 -11 532 3 l 568 117 b 394 96 519 106 450 96 b 226 228 288 96 226 129 l 226 425 l 401 508 l 401 622 l 392 622 l 226 543 l 226 931 l 104 931 l 104 483 l -17 426 l -17 314 l -7 314 l 104 367 l 104 231 b 381 -11 104 35 236 -11 z "},"Ŀ":{"ha":596,"x_min":0,"x_max":0,"o":"m 381 -11 b 572 14 461 -11 532 3 l 568 117 b 394 96 519 106 450 96 b 226 228 288 96 226 129 l 226 931 l 104 931 l 104 231 b 381 -11 104 35 236 -11 z m 456 440 b 521 500 496 440 521 461 b 456 561 521 539 496 561 b 392 500 415 561 392 539 b 456 440 392 461 415 440 z "},"Ń":{"ha":854,"x_min":0,"x_max":0,"o":"m 374 999 l 479 999 l 649 1142 l 649 1150 l 511 1150 l 374 1007 z m 104 0 l 226 0 l 226 515 b 217 700 226 579 224 644 b 301 538 236 650 278 578 l 639 0 l 750 0 l 750 931 l 629 931 l 629 396 b 636 215 629 360 631 283 b 550 382 619 260 583 328 l 207 931 l 104 931 z "},"Ň":{"ha":854,"x_min":0,"x_max":0,"o":"m 374 997 l 483 997 l 619 1144 l 619 1153 l 519 1153 l 428 1067 l 336 1153 l 235 1153 l 235 1144 z m 104 0 l 226 0 l 226 515 b 217 700 226 579 224 644 b 301 538 236 650 278 578 l 639 0 l 750 0 l 750 931 l 629 931 l 629 396 b 636 215 629 360 631 283 b 550 382 619 260 583 328 l 207 931 l 104 931 z "},"Ñ":{"ha":854,"x_min":0,"x_max":0,"o":"m 104 0 l 226 0 l 226 515 b 217 700 226 579 224 644 b 301 538 236 650 278 578 l 639 0 l 750 0 l 750 931 l 629 931 l 629 396 b 636 215 629 360 631 283 b 550 382 619 260 583 328 l 207 931 l 104 931 z m 513 993 b 635 1093 569 993 613 1035 l 586 1143 l 578 1143 b 511 1082 565 1110 547 1082 b 354 1149 451 1082 432 1149 b 233 1061 293 1149 261 1108 l 279 1010 l 288 1010 b 354 1061 304 1040 324 1061 b 513 993 408 1061 433 993 z "},"Ņ":{"ha":854,"x_min":0,"x_max":0,"o":"m 350 -269 l 425 -269 l 486 -101 l 486 -53 l 381 -53 z m 104 0 l 226 0 l 226 515 b 217 700 226 579 224 644 b 301 538 236 650 278 578 l 639 0 l 750 0 l 750 931 l 629 931 l 629 396 b 636 215 629 360 631 283 b 550 382 619 260 583 328 l 207 931 l 104 931 z "},"Ò":{"ha":788,"x_min":0,"x_max":0,"o":"m 394 97 b 201 469 214 97 201 229 b 394 833 201 703 213 833 b 586 469 575 833 586 703 b 394 97 586 229 574 97 z m 392 -11 b 708 472 668 -11 708 163 b 397 942 708 771 672 942 b 79 461 119 942 79 768 b 392 -11 79 163 117 -11 z m 340 999 l 447 999 l 447 1007 l 310 1150 l 172 1150 l 172 1142 z "},"Ó":{"ha":788,"x_min":0,"x_max":0,"o":"m 343 999 l 449 999 l 618 1142 l 618 1150 l 481 1150 l 343 1007 z m 394 97 b 201 469 214 97 201 229 b 394 833 201 703 213 833 b 586 469 575 833 586 703 b 394 97 586 229 574 97 z m 392 -11 b 708 472 668 -11 708 163 b 397 942 708 771 672 942 b 79 461 119 942 79 768 b 392 -11 79 163 117 -11 z "},"Ô":{"ha":788,"x_min":0,"x_max":0,"o":"m 203 999 l 304 999 l 396 1085 l 488 999 l 588 999 l 588 1007 l 451 1154 l 342 1154 l 203 1007 z m 394 97 b 201 469 214 97 201 229 b 394 833 201 703 213 833 b 586 469 575 833 586 703 b 394 97 586 229 574 97 z m 392 -11 b 708 472 668 -11 708 163 b 397 942 708 771 672 942 b 79 461 119 942 79 768 b 392 -11 79 163 117 -11 z "},"Õ":{"ha":788,"x_min":0,"x_max":0,"o":"m 394 97 b 201 469 214 97 201 229 b 394 833 201 703 213 833 b 586 469 575 833 586 703 b 394 97 586 229 574 97 z m 392 -11 b 708 472 668 -11 708 163 b 397 942 708 771 672 942 b 79 461 119 942 79 768 b 392 -11 79 163 117 -11 z m 481 993 b 603 1093 538 993 581 1035 l 554 1143 l 546 1143 b 479 1082 533 1110 515 1082 b 322 1149 419 1082 400 1149 b 201 1061 261 1149 229 1108 l 247 1010 l 256 1010 b 322 1061 272 1040 292 1061 b 481 993 376 1061 401 993 z "},"Ö":{"ha":788,"x_min":0,"x_max":0,"o":"m 221 1010 l 326 1010 l 326 1126 l 221 1126 z m 465 1010 l 571 1010 l 571 1126 l 465 1126 z m 394 97 b 201 469 214 97 201 229 b 394 833 201 703 213 833 b 586 469 575 833 586 703 b 394 97 586 229 574 97 z m 392 -11 b 708 472 668 -11 708 163 b 397 942 708 771 672 942 b 79 461 119 942 79 768 b 392 -11 79 163 117 -11 z "},"Ō":{"ha":788,"x_min":0,"x_max":0,"o":"m 228 1019 l 567 1019 l 567 1104 l 228 1104 z m 394 97 b 201 469 214 97 201 229 b 394 833 201 703 213 833 b 586 469 575 833 586 703 b 394 97 586 229 574 97 z m 392 -11 b 708 472 668 -11 708 163 b 397 942 708 771 672 942 b 79 461 119 942 79 768 b 392 -11 79 163 117 -11 z "},"Ŏ":{"ha":788,"x_min":0,"x_max":0,"o":"m 394 97 b 201 469 214 97 201 229 b 394 833 201 703 213 833 b 586 469 575 833 586 703 b 394 97 586 229 574 97 z m 392 -11 b 708 472 668 -11 708 163 b 397 942 708 771 672 942 b 79 461 119 942 79 768 b 392 -11 79 163 117 -11 z m 396 990 b 576 1143 503 990 563 1046 l 500 1143 b 399 1075 492 1097 450 1075 b 294 1143 340 1075 301 1099 l 217 1143 b 396 990 231 1046 293 990 z "},"Ő":{"ha":788,"x_min":0,"x_max":0,"o":"m 239 999 l 328 999 l 432 1142 l 432 1150 l 307 1150 l 239 1007 z m 464 999 l 553 999 l 657 1142 l 657 1150 l 532 1150 l 464 1007 z m 394 97 b 201 469 214 97 201 229 b 394 833 201 703 213 833 b 586 469 575 833 586 703 b 394 97 586 229 574 97 z m 392 -11 b 708 472 668 -11 708 163 b 397 942 708 771 672 942 b 79 461 119 942 79 768 b 392 -11 79 163 117 -11 z "},"Ø":{"ha":788,"x_min":0,"x_max":0,"o":"m 392 -11 b 708 472 668 -11 708 163 b 617 871 708 658 694 794 l 690 1050 l 690 1060 l 607 1060 l 546 917 b 397 942 507 932 458 942 b 79 461 119 942 79 768 b 194 40 79 257 96 113 l 129 -122 l 129 -132 l 213 -132 l 267 4 b 392 -11 301 -6 343 -11 z m 394 97 b 201 469 214 97 201 229 b 394 833 201 703 213 833 b 586 469 575 833 586 703 b 394 97 586 229 574 97 z "},"Ǿ":{"ha":788,"x_min":0,"x_max":0,"o":"m 392 -11 b 708 472 668 -11 708 163 b 617 871 708 658 694 794 l 690 1050 l 690 1060 l 607 1060 l 546 917 b 397 942 507 932 458 942 b 79 461 119 942 79 768 b 194 40 79 257 96 113 l 129 -122 l 129 -132 l 213 -132 l 267 4 b 392 -11 301 -6 343 -11 z m 394 97 b 201 469 214 97 201 229 b 394 833 201 703 213 833 b 586 469 575 833 586 703 b 394 97 586 229 574 97 z m 272 994 l 378 994 l 547 1138 l 547 1146 l 410 1146 l 272 1003 z "},"Œ":{"ha":1128,"x_min":0,"x_max":0,"o":"m 390 -11 b 614 82 510 -11 574 28 b 854 -11 658 22 736 -11 b 1088 18 960 -11 1047 7 l 1086 124 b 863 97 1044 113 956 97 b 665 299 718 97 672 172 l 994 497 l 994 617 l 985 617 l 661 425 l 661 496 b 878 835 661 728 686 835 b 1075 821 954 835 1035 826 l 1076 926 b 858 942 1038 932 953 942 b 618 849 738 942 663 908 b 397 942 578 907 506 942 b 79 467 121 942 79 767 b 390 -11 79 165 114 -11 z m 394 97 b 201 467 214 97 201 236 b 394 833 201 694 213 833 b 564 742 478 833 536 808 b 538 467 543 672 538 571 b 563 186 538 368 549 256 b 394 97 533 119 472 97 z "},"Ŕ":{"ha":744,"x_min":0,"x_max":0,"o":"m 311 999 l 417 999 l 586 1142 l 586 1150 l 449 1150 l 311 1007 z m 104 0 l 226 0 l 226 231 l 374 319 l 582 0 l 717 0 l 717 10 l 471 386 l 539 426 b 685 685 656 503 685 586 b 436 931 685 854 594 931 l 104 931 z m 226 358 l 226 825 l 431 825 b 565 674 517 825 565 776 b 475 510 565 594 542 550 z "},"Ř":{"ha":744,"x_min":0,"x_max":0,"o":"m 310 997 l 419 997 l 556 1144 l 556 1153 l 456 1153 l 364 1067 l 272 1153 l 171 1153 l 171 1144 z m 104 0 l 226 0 l 226 231 l 374 319 l 582 0 l 717 0 l 717 10 l 471 386 l 539 426 b 685 685 656 503 685 586 b 436 931 685 854 594 931 l 104 931 z m 226 358 l 226 825 l 431 825 b 565 674 517 825 565 776 b 475 510 565 594 542 550 z "},"Ŗ":{"ha":744,"x_min":0,"x_max":0,"o":"m 315 -269 l 390 -269 l 451 -101 l 451 -53 l 346 -53 z m 104 0 l 226 0 l 226 231 l 374 319 l 582 0 l 717 0 l 717 10 l 471 386 l 539 426 b 685 685 656 503 685 586 b 436 931 685 854 594 931 l 104 931 z m 226 358 l 226 825 l 431 825 b 565 674 517 825 565 776 b 475 510 565 594 542 550 z "},"Ś":{"ha":651,"x_min":0,"x_max":0,"o":"m 293 999 l 399 999 l 568 1142 l 568 1150 l 431 1150 l 293 1007 z m 297 -11 b 600 232 474 -11 600 51 b 446 478 600 313 576 388 l 268 600 b 178 728 201 646 178 682 b 356 832 181 808 264 832 b 554 804 422 832 492 819 l 556 915 b 354 942 500 928 431 942 b 63 731 201 942 69 888 b 192 497 56 636 96 563 l 371 374 b 483 219 451 319 483 276 b 297 99 483 131 411 99 b 63 132 210 99 121 117 l 61 22 b 297 -11 110 8 199 -11 z "},"Ŝ":{"ha":651,"x_min":0,"x_max":0,"o":"m 154 999 l 256 999 l 347 1085 l 439 999 l 539 999 l 539 1007 l 403 1154 l 293 1154 l 154 1007 z m 297 -11 b 600 232 474 -11 600 51 b 446 478 600 313 576 388 l 268 600 b 178 728 201 646 178 682 b 356 832 181 808 264 832 b 554 804 422 832 492 819 l 556 915 b 354 942 500 928 431 942 b 63 731 201 942 69 888 b 192 497 56 636 96 563 l 371 374 b 483 219 451 319 483 276 b 297 99 483 131 411 99 b 63 132 210 99 121 117 l 61 22 b 297 -11 110 8 199 -11 z "},"Š":{"ha":651,"x_min":0,"x_max":0,"o":"m 293 997 l 403 997 l 539 1144 l 539 1153 l 439 1153 l 347 1067 l 256 1153 l 154 1153 l 154 1144 z m 297 -11 b 600 232 474 -11 600 51 b 446 478 600 313 576 388 l 268 600 b 178 728 201 646 178 682 b 356 832 181 808 264 832 b 554 804 422 832 492 819 l 556 915 b 354 942 500 928 431 942 b 63 731 201 942 69 888 b 192 497 56 636 96 563 l 371 374 b 483 219 451 319 483 276 b 297 99 483 131 411 99 b 63 132 210 99 121 117 l 61 22 b 297 -11 110 8 199 -11 z "},"Ş":{"ha":651,"x_min":0,"x_max":0,"o":"m 243 -261 b 340 -49 407 -246 458 -107 l 340 -10 b 600 232 493 0 600 67 b 446 478 600 313 576 388 l 268 600 b 178 728 201 646 178 682 b 356 832 178 808 264 832 b 554 804 422 832 492 819 l 556 915 b 354 942 500 928 431 942 b 63 731 201 942 72 888 b 192 497 57 636 96 563 l 371 374 b 483 219 451 319 483 276 b 297 99 483 131 411 99 b 63 132 210 99 121 117 l 61 22 b 256 -10 103 10 174 -6 l 256 -78 b 206 -200 367 -125 310 -192 z "},"Ș":{"ha":651,"x_min":0,"x_max":0,"o":"m 224 -269 l 299 -269 l 360 -101 l 360 -53 l 254 -53 z m 297 -11 b 600 232 474 -11 600 51 b 446 478 600 313 576 388 l 268 600 b 178 728 201 646 178 682 b 356 832 181 808 264 832 b 554 804 422 832 492 819 l 556 915 b 354 942 500 928 431 942 b 63 731 201 942 69 888 b 192 497 56 636 96 563 l 371 374 b 483 219 451 319 483 276 b 297 99 483 131 411 99 b 63 132 210 99 121 117 l 61 22 b 297 -11 110 8 199 -11 z "},"Ť":{"ha":665,"x_min":0,"x_max":0,"o":"m 278 997 l 388 997 l 524 1144 l 524 1153 l 424 1153 l 332 1067 l 240 1153 l 139 1153 l 139 1144 z m 271 0 l 393 0 l 393 825 l 644 825 l 644 931 l 21 931 l 21 825 l 271 825 z "},"Ţ":{"ha":665,"x_min":0,"x_max":0,"o":"m 249 -269 l 324 -269 l 385 -101 l 385 -53 l 279 -53 z m 271 0 l 393 0 l 393 825 l 644 825 l 644 931 l 21 931 l 21 825 l 271 825 z "},"Ț":{"ha":665,"x_min":0,"x_max":0,"o":"m 249 -269 l 324 -269 l 385 -101 l 385 -53 l 279 -53 z m 271 0 l 393 0 l 393 825 l 644 825 l 644 931 l 21 931 l 21 825 l 271 825 z "},"Ŧ":{"ha":665,"x_min":0,"x_max":0,"o":"m 124 567 l 271 567 l 271 0 l 393 0 l 393 567 l 542 567 l 542 651 l 393 651 l 393 825 l 644 825 l 644 931 l 21 931 l 21 825 l 271 825 l 271 651 l 124 651 z "},"Ù":{"ha":822,"x_min":0,"x_max":0,"o":"m 413 -11 b 718 369 654 -11 718 96 l 718 931 l 596 931 l 596 372 b 413 97 596 182 575 97 b 226 372 249 97 226 182 l 226 931 l 104 931 l 104 369 b 413 -11 104 96 169 -11 z m 356 999 l 463 999 l 463 1007 l 325 1150 l 188 1150 l 188 1142 z "},"Ú":{"ha":822,"x_min":0,"x_max":0,"o":"m 358 999 l 464 999 l 633 1142 l 633 1150 l 496 1150 l 358 1007 z m 413 -11 b 718 369 654 -11 718 96 l 718 931 l 596 931 l 596 372 b 413 97 596 182 575 97 b 226 372 249 97 226 182 l 226 931 l 104 931 l 104 369 b 413 -11 104 96 169 -11 z "},"Û":{"ha":822,"x_min":0,"x_max":0,"o":"m 218 999 l 319 999 l 411 1085 l 503 999 l 603 999 l 603 1007 l 467 1154 l 357 1154 l 218 1007 z m 413 -11 b 718 369 654 -11 718 96 l 718 931 l 596 931 l 596 372 b 413 97 596 182 575 97 b 226 372 249 97 226 182 l 226 931 l 104 931 l 104 369 b 413 -11 104 96 169 -11 z "},"Ũ":{"ha":822,"x_min":0,"x_max":0,"o":"m 413 -11 b 718 369 654 -11 718 96 l 718 931 l 596 931 l 596 372 b 413 97 596 182 575 97 b 226 372 249 97 226 182 l 226 931 l 104 931 l 104 369 b 413 -11 104 96 169 -11 z m 496 993 b 618 1093 553 993 596 1035 l 569 1143 l 561 1143 b 494 1082 549 1110 531 1082 b 338 1149 435 1082 415 1149 b 217 1061 276 1149 244 1108 l 263 1010 l 271 1010 b 338 1061 288 1040 307 1061 b 496 993 392 1061 417 993 z "},"Ü":{"ha":822,"x_min":0,"x_max":0,"o":"m 236 1010 l 342 1010 l 342 1126 l 236 1126 z m 481 1010 l 586 1010 l 586 1126 l 481 1126 z m 413 -11 b 718 369 654 -11 718 96 l 718 931 l 596 931 l 596 372 b 413 97 596 182 575 97 b 226 372 249 97 226 182 l 226 931 l 104 931 l 104 369 b 413 -11 104 96 169 -11 z "},"Ū":{"ha":822,"x_min":0,"x_max":0,"o":"m 413 -11 b 718 369 654 -11 718 96 l 718 931 l 596 931 l 596 372 b 413 97 596 182 575 97 b 226 372 249 97 226 182 l 226 931 l 104 931 l 104 369 b 413 -11 104 96 169 -11 z m 243 1019 l 582 1019 l 582 1104 l 243 1104 z "},"Ŭ":{"ha":822,"x_min":0,"x_max":0,"o":"m 413 -11 b 718 369 654 -11 718 96 l 718 931 l 596 931 l 596 372 b 413 97 596 182 575 97 b 226 372 249 97 226 182 l 226 931 l 104 931 l 104 369 b 413 -11 104 96 169 -11 z m 411 990 b 592 1143 518 990 578 1046 l 515 1143 b 414 1075 507 1097 465 1075 b 310 1143 356 1075 317 1099 l 232 1143 b 411 990 246 1046 308 990 z "},"Ů":{"ha":822,"x_min":0,"x_max":0,"o":"m 411 1033 b 347 1097 374 1033 347 1060 b 411 1163 347 1135 374 1163 b 476 1097 449 1163 476 1135 b 411 1033 476 1060 449 1033 z m 411 974 b 544 1097 492 974 544 1028 b 413 1221 544 1167 494 1221 b 279 1097 331 1221 279 1167 b 411 974 279 1028 329 974 z m 413 -11 b 718 369 654 -11 718 96 l 718 931 l 596 931 l 596 372 b 413 97 596 182 575 97 b 226 372 249 97 226 182 l 226 931 l 104 931 l 104 369 b 413 -11 104 96 169 -11 z "},"Ű":{"ha":822,"x_min":0,"x_max":0,"o":"m 413 -11 b 718 369 654 -11 718 96 l 718 931 l 596 931 l 596 372 b 413 97 596 182 575 97 b 226 372 249 97 226 182 l 226 931 l 104 931 l 104 369 b 413 -11 104 96 169 -11 z m 254 999 l 343 999 l 447 1142 l 447 1150 l 322 1150 l 254 1007 z m 479 999 l 568 999 l 672 1142 l 672 1150 l 547 1150 l 479 1007 z "},"Ų":{"ha":822,"x_min":0,"x_max":0,"o":"m 413 -11 l 422 -11 b 339 -151 378 -46 339 -96 b 457 -256 339 -217 382 -256 b 540 -240 490 -256 521 -247 l 536 -171 b 474 -179 517 -175 494 -179 b 428 -135 444 -179 428 -165 b 546 4 428 -79 494 -11 b 718 369 674 43 718 143 l 718 931 l 596 931 l 596 372 b 413 97 596 182 575 97 b 226 372 249 97 226 182 l 226 931 l 104 931 l 104 369 b 413 -11 104 96 169 -11 z "},"Ẁ":{"ha":1131,"x_min":0,"x_max":0,"o":"m 322 -10 b 472 43 386 -10 429 15 l 565 101 l 656 43 b 806 -10 703 13 747 -10 b 981 140 907 -10 965 56 b 1082 931 1008 303 1054 660 l 960 931 b 864 178 931 667 889 311 b 785 110 857 138 831 110 b 693 143 751 110 724 124 l 625 185 l 625 931 l 504 931 l 504 185 l 439 144 b 346 110 408 126 379 110 b 267 178 304 110 274 135 b 171 931 244 311 200 665 l 49 931 b 150 140 75 665 125 286 b 322 -10 161 71 210 -10 z m 511 999 l 618 999 l 618 1007 l 481 1150 l 343 1150 l 343 1142 z "},"Ẃ":{"ha":1131,"x_min":0,"x_max":0,"o":"m 514 999 l 619 999 l 789 1142 l 789 1150 l 651 1150 l 514 1007 z m 322 -10 b 472 43 386 -10 429 15 l 565 101 l 656 43 b 806 -10 703 13 747 -10 b 981 140 907 -10 965 56 b 1082 931 1008 303 1054 660 l 960 931 b 864 178 931 667 889 311 b 785 110 857 138 831 110 b 693 143 751 110 724 124 l 625 185 l 625 931 l 504 931 l 504 185 l 439 144 b 346 110 408 126 379 110 b 267 178 304 110 274 135 b 171 931 244 311 200 665 l 49 931 b 150 140 75 665 125 286 b 322 -10 161 71 210 -10 z "},"Ŵ":{"ha":1131,"x_min":0,"x_max":0,"o":"m 374 999 l 475 999 l 567 1085 l 658 999 l 758 999 l 758 1007 l 622 1154 l 513 1154 l 374 1007 z m 322 -10 b 472 43 386 -10 429 15 l 565 101 l 656 43 b 806 -10 703 13 747 -10 b 981 140 907 -10 965 56 b 1082 931 1008 303 1054 660 l 960 931 b 864 178 931 667 889 311 b 785 110 857 138 831 110 b 693 143 751 110 724 124 l 625 185 l 625 931 l 504 931 l 504 185 l 439 144 b 346 110 408 126 379 110 b 267 178 304 110 274 135 b 171 931 244 311 200 665 l 49 931 b 150 140 75 665 125 286 b 322 -10 161 71 210 -10 z "},"Ẅ":{"ha":1131,"x_min":0,"x_max":0,"o":"m 392 1010 l 497 1010 l 497 1126 l 392 1126 z m 636 1010 l 742 1010 l 742 1126 l 636 1126 z m 322 -10 b 472 43 386 -10 429 15 l 565 101 l 656 43 b 806 -10 703 13 747 -10 b 981 140 907 -10 965 56 b 1082 931 1008 303 1054 660 l 960 931 b 864 178 931 667 889 311 b 785 110 857 138 831 110 b 693 143 751 110 724 124 l 625 185 l 625 931 l 504 931 l 504 185 l 439 144 b 346 110 408 126 379 110 b 267 178 304 110 274 135 b 171 931 244 311 200 665 l 49 931 b 150 140 75 665 125 286 b 322 -10 161 71 210 -10 z "},"Ỳ":{"ha":738,"x_min":0,"x_max":0,"o":"m 308 0 l 429 0 l 429 303 b 676 656 628 322 676 421 l 676 931 l 553 931 l 553 650 b 371 406 553 472 521 406 b 183 650 219 406 183 472 l 183 931 l 61 931 l 61 657 b 308 303 61 421 117 322 z m 315 999 l 422 999 l 422 1007 l 285 1150 l 147 1150 l 147 1142 z "},"Ý":{"ha":738,"x_min":0,"x_max":0,"o":"m 308 0 l 429 0 l 429 303 b 676 656 628 322 676 421 l 676 931 l 553 931 l 553 650 b 371 406 553 472 521 406 b 183 650 219 406 183 472 l 183 931 l 61 931 l 61 657 b 308 303 61 421 117 322 z m 317 999 l 422 999 l 592 1142 l 592 1150 l 454 1150 l 317 1007 z "},"Ŷ":{"ha":738,"x_min":0,"x_max":0,"o":"m 308 0 l 429 0 l 429 303 b 676 656 628 322 676 421 l 676 931 l 553 931 l 553 650 b 371 406 553 472 521 406 b 183 650 219 406 183 472 l 183 931 l 61 931 l 61 657 b 308 303 61 421 117 322 z m 178 999 l 279 999 l 371 1085 l 463 999 l 563 999 l 563 1007 l 426 1154 l 317 1154 l 178 1007 z "},"Ÿ":{"ha":738,"x_min":0,"x_max":0,"o":"m 308 0 l 429 0 l 429 303 b 676 656 628 322 676 421 l 676 931 l 553 931 l 553 650 b 371 406 553 472 521 406 b 183 650 219 406 183 472 l 183 931 l 61 931 l 61 657 b 308 303 61 421 117 322 z m 196 1010 l 301 1010 l 301 1126 l 196 1126 z m 440 1010 l 546 1010 l 546 1126 l 440 1126 z "},"Ź":{"ha":674,"x_min":0,"x_max":0,"o":"m 288 999 l 393 999 l 563 1142 l 563 1150 l 425 1150 l 288 1007 z m 46 0 l 635 0 l 635 106 l 192 106 l 631 850 l 631 931 l 61 931 l 61 825 l 482 825 l 42 81 z "},"Ž":{"ha":674,"x_min":0,"x_max":0,"o":"m 286 997 l 396 997 l 532 1144 l 532 1153 l 432 1153 l 340 1067 l 249 1153 l 147 1153 l 147 1144 z m 46 0 l 635 0 l 635 106 l 192 106 l 631 850 l 631 931 l 61 931 l 61 825 l 482 825 l 42 81 z "},"Ż":{"ha":674,"x_min":0,"x_max":0,"o":"m 46 0 l 635 0 l 635 106 l 192 106 l 631 850 l 631 931 l 61 931 l 61 825 l 482 825 l 42 81 z m 340 1008 b 406 1068 381 1008 406 1029 b 340 1128 406 1107 381 1128 b 276 1068 300 1128 276 1107 b 340 1008 276 1029 300 1008 z "},"Ŋ":{"ha":854,"x_min":0,"x_max":0,"o":"m 553 -285 b 750 -93 669 -285 750 -211 l 750 931 l 629 931 l 629 396 b 636 215 629 360 631 283 b 550 382 618 261 582 328 l 207 931 l 104 931 l 104 0 l 226 0 l 226 515 b 217 700 226 579 224 644 b 301 538 238 649 279 575 l 632 17 l 632 -100 b 538 -192 632 -158 596 -192 b 483 -185 518 -192 503 -189 l 479 -275 b 553 -285 500 -281 522 -285 z "},"Ð":{"ha":814,"x_min":0,"x_max":0,"o":"m 0 424 l 104 424 l 104 0 l 204 0 l 211 96 l 290 40 b 450 -7 331 13 376 -7 b 732 500 694 -7 732 200 b 425 931 732 779 700 931 l 104 931 l 104 510 l 0 510 z m 438 104 b 318 144 392 104 357 117 l 226 210 l 226 424 l 408 424 l 408 510 l 226 510 l 226 825 l 419 825 b 608 497 592 825 608 714 b 438 104 608 232 583 104 z "},"Þ":{"ha":715,"x_min":0,"x_max":0,"o":"m 104 0 l 226 0 l 226 190 l 538 386 b 685 658 658 464 685 551 b 436 897 685 829 575 897 l 226 897 l 226 1039 l 104 1039 z m 226 324 l 226 792 l 431 792 b 565 651 499 792 565 750 b 475 475 565 561 544 519 z "},"a":{"ha":606,"x_min":0,"x_max":0,"o":"m 239 -6 b 521 -1 344 -6 521 -1 b 526 265 521 -1 526 140 b 519 519 526 344 524 446 b 282 693 511 625 451 693 b 113 674 217 693 156 683 l 115 581 b 268 600 161 592 217 600 b 404 506 369 600 404 568 l 157 353 b 47 181 94 311 47 257 l 47 156 b 239 -6 47 61 118 -6 z m 258 83 b 158 164 189 83 158 118 l 158 196 b 218 292 158 240 186 271 l 408 406 b 413 246 408 406 413 319 b 410 88 413 174 410 88 b 258 83 410 88 322 83 z "},"b":{"ha":638,"x_min":0,"x_max":0,"o":"m 82 0 l 307 0 b 574 358 526 0 574 138 b 392 692 574 586 525 692 b 261 650 339 692 299 674 l 201 611 l 201 931 l 82 931 z m 201 90 l 201 511 l 275 558 b 363 592 310 581 335 592 b 456 349 429 592 456 532 b 307 90 456 174 433 90 z "},"c":{"ha":528,"x_min":0,"x_max":0,"o":"m 321 -12 b 486 15 390 -12 446 1 l 485 110 b 332 82 446 94 386 82 b 183 338 194 82 183 164 b 335 600 183 518 207 600 b 472 582 375 600 431 592 l 475 674 b 321 693 429 685 375 693 b 64 325 90 693 64 533 b 321 -12 64 138 85 -12 z "},"d":{"ha":638,"x_min":0,"x_max":0,"o":"m 249 -12 b 367 24 296 -12 335 3 l 443 75 l 451 0 l 556 0 l 556 931 l 438 931 l 438 681 l 321 681 b 64 333 103 681 64 542 b 249 -12 64 99 114 -12 z m 278 86 b 183 329 199 86 183 174 b 329 590 183 503 203 590 l 438 590 l 438 169 l 346 107 b 278 86 324 93 300 86 z "},"e":{"ha":601,"x_min":0,"x_max":0,"o":"m 318 -12 b 486 15 385 -12 450 1 l 482 107 b 329 79 443 94 385 79 b 193 189 244 79 208 111 l 547 404 b 550 457 549 421 550 439 b 317 693 550 613 485 693 b 64 339 89 693 64 543 b 318 -12 64 140 88 -12 z m 183 340 b 319 600 183 506 192 600 b 435 457 410 600 435 553 l 435 428 l 183 275 z "},"f":{"ha":396,"x_min":0,"x_max":0,"o":"m 82 0 l 201 0 l 201 590 l 383 590 l 388 681 l 201 681 l 201 742 b 311 854 201 817 229 854 b 414 842 343 854 383 849 l 418 932 b 282 949 388 939 336 949 b 82 742 153 949 82 883 z "},"g":{"ha":633,"x_min":0,"x_max":0,"o":"m 296 -285 b 596 -75 526 -285 596 -201 b 408 88 596 42 535 88 l 239 88 b 221 100 228 88 221 92 b 235 118 221 107 226 113 l 435 239 b 547 451 506 282 547 342 b 488 601 547 538 517 579 l 608 588 l 608 681 l 406 681 b 304 693 382 686 353 693 b 64 428 125 693 64 601 b 206 192 64 268 114 192 l 133 146 b 83 68 101 125 83 100 b 157 0 83 28 114 0 l 385 0 b 489 -82 467 0 489 -26 b 311 -197 489 -156 449 -197 b 175 -140 224 -197 175 -179 b 182 -106 175 -132 176 -118 l 76 -106 b 61 -162 67 -122 61 -139 b 296 -285 61 -240 132 -285 z m 268 250 b 181 421 200 250 181 322 b 310 600 181 549 214 600 b 431 446 394 600 431 560 b 372 294 431 369 415 319 l 315 261 b 268 250 306 256 290 250 z "},"h":{"ha":656,"x_min":0,"x_max":0,"o":"m 82 0 l 201 0 l 201 510 l 275 557 b 369 590 311 579 339 590 b 453 503 428 590 453 557 l 453 0 l 574 0 l 574 506 b 401 692 574 625 508 692 b 257 644 338 692 296 668 l 201 610 l 201 931 l 82 931 z "},"i":{"ha":313,"x_min":0,"x_max":0,"o":"m 97 0 l 215 0 l 215 681 l 97 681 z m 92 788 l 219 788 l 219 904 l 92 904 z "},"j":{"ha":313,"x_min":0,"x_max":0,"o":"m 14 -285 b 215 -93 135 -285 215 -211 l 215 681 l 97 681 l 97 -100 b 0 -192 97 -158 63 -192 b -51 -185 -15 -192 -32 -189 l -56 -275 b 14 -285 -36 -281 -11 -285 z m 92 788 l 219 788 l 219 904 l 92 904 z "},"k":{"ha":642,"x_min":0,"x_max":0,"o":"m 82 0 l 201 0 l 201 318 l 261 392 l 396 265 b 454 115 439 224 454 181 l 454 0 l 572 0 l 572 119 b 488 333 572 213 549 271 l 332 481 l 388 549 b 454 582 404 571 422 582 l 550 582 l 553 681 l 433 681 b 324 626 382 681 351 663 l 201 474 l 201 931 l 82 931 z "},"l":{"ha":350,"x_min":0,"x_max":0,"o":"m 261 -11 b 350 3 297 -11 328 -4 l 346 93 b 289 83 326 88 307 83 b 201 175 233 83 201 113 l 201 931 l 82 931 l 82 171 b 261 -11 82 51 146 -11 z "},"m":{"ha":990,"x_min":0,"x_max":0,"o":"m 82 0 l 201 0 l 201 510 l 275 557 b 364 590 310 579 339 590 b 438 508 408 590 438 558 l 438 0 l 556 0 l 556 482 b 554 518 556 486 556 511 l 617 558 b 708 590 653 582 683 590 b 788 506 754 590 788 560 l 788 0 l 908 0 l 908 507 b 739 692 908 625 839 692 b 600 647 690 692 643 676 l 539 607 b 397 692 518 656 471 692 b 263 649 350 692 306 676 l 194 604 l 188 681 l 82 681 z "},"n":{"ha":656,"x_min":0,"x_max":0,"o":"m 82 0 l 201 0 l 201 510 l 275 557 b 371 590 308 579 339 590 b 453 503 426 590 453 557 l 453 0 l 574 0 l 574 508 b 404 692 574 628 510 692 b 263 649 346 692 306 676 l 194 604 l 188 681 l 82 681 z "},"o":{"ha":629,"x_min":0,"x_max":0,"o":"m 315 82 b 183 335 192 82 183 183 b 318 600 183 478 190 600 b 446 353 442 600 446 486 b 315 82 446 183 439 82 z m 313 -12 b 567 353 538 -12 567 144 b 319 693 567 538 543 693 b 64 328 96 693 64 536 b 313 -12 64 144 88 -12 z "},"p":{"ha":638,"x_min":0,"x_max":0,"o":"m 82 -271 l 201 -271 l 201 0 l 307 0 b 574 360 528 0 574 143 b 393 692 574 586 524 692 b 263 650 343 692 301 675 l 194 606 l 188 681 l 82 681 z m 201 90 l 201 511 l 275 558 b 363 592 310 581 335 592 b 456 350 429 592 456 533 b 307 90 456 182 435 90 z "},"q":{"ha":639,"x_min":0,"x_max":0,"o":"m 438 -271 l 556 -271 l 556 681 l 321 681 b 64 335 103 681 64 543 b 247 -12 64 99 114 -12 b 367 24 290 -12 332 0 l 438 71 z m 276 85 b 183 331 200 85 183 175 b 329 590 183 504 204 590 l 438 590 l 438 169 l 354 114 b 276 85 329 96 300 85 z "},"r":{"ha":456,"x_min":0,"x_max":0,"o":"m 82 0 l 201 0 l 201 493 l 296 554 b 396 586 329 576 358 586 b 444 582 414 586 433 585 l 449 683 b 399 688 435 686 415 688 b 282 647 360 688 321 675 l 194 583 l 188 681 l 82 681 z "},"s":{"ha":517,"x_min":0,"x_max":0,"o":"m 247 -12 b 472 169 415 -12 472 76 b 368 346 472 236 442 294 l 211 451 b 158 532 169 479 157 504 b 268 599 160 578 197 599 b 432 572 321 599 383 588 l 435 667 b 263 693 386 681 326 693 b 53 524 106 693 53 614 b 146 356 53 457 81 400 l 310 246 b 364 157 349 219 365 192 b 247 82 363 108 322 82 b 54 114 190 82 107 97 l 51 18 b 247 -12 101 3 181 -12 z "},"t":{"ha":432,"x_min":0,"x_max":0,"o":"m 285 -11 b 404 10 335 -11 379 0 l 400 97 b 310 83 374 90 340 83 b 201 182 243 83 201 113 l 201 590 l 376 590 l 381 681 l 200 681 l 200 847 l 82 847 l 82 179 b 285 -11 82 50 163 -11 z "},"u":{"ha":654,"x_min":0,"x_max":0,"o":"m 260 -11 b 401 38 319 -11 361 10 l 460 78 l 468 0 l 572 0 l 572 681 l 454 681 l 454 171 l 385 125 b 288 88 353 103 325 88 b 201 171 232 88 201 121 l 201 681 l 82 681 l 82 165 b 260 -11 82 57 150 -11 z "},"v":{"ha":640,"x_min":0,"x_max":0,"o":"m 301 -11 l 339 -11 b 496 108 422 -11 481 40 b 610 681 525 236 575 485 l 490 681 b 386 126 460 496 408 221 b 333 85 381 104 361 85 l 310 85 b 257 126 279 85 263 104 b 154 681 236 214 183 496 l 31 681 b 144 108 65 485 110 264 b 301 -11 160 42 210 -11 z "},"w":{"ha":915,"x_min":0,"x_max":0,"o":"m 268 -11 b 379 25 307 -11 342 -1 l 457 76 l 533 25 b 646 -11 565 1 603 -11 b 790 99 722 -11 778 26 b 881 681 813 214 842 375 l 754 681 b 678 131 722 392 696 215 b 631 88 672 103 657 88 b 578 106 614 88 594 93 l 515 146 l 515 681 l 397 681 l 397 144 l 336 106 b 286 88 317 93 304 88 b 235 131 257 88 240 103 b 160 681 218 226 196 381 l 36 681 b 124 99 71 392 100 218 b 268 -11 139 24 193 -11 z "},"x":{"ha":592,"x_min":0,"x_max":0,"o":"m 15 0 l 136 0 l 290 244 l 447 0 l 578 0 l 578 7 l 363 347 l 568 674 l 568 681 l 447 681 l 299 443 l 151 681 l 21 681 l 21 674 l 225 343 l 15 7 z "},"y":{"ha":656,"x_min":0,"x_max":0,"o":"m 313 -285 b 574 -67 493 -285 574 -203 l 574 681 l 454 681 l 454 176 l 381 126 b 288 93 350 107 324 93 b 203 178 233 93 203 125 l 203 681 l 83 681 l 83 174 b 261 -6 83 65 151 -6 b 406 46 324 -6 367 18 l 454 78 l 454 -74 b 307 -192 454 -149 413 -192 b 151 -169 253 -192 189 -181 l 147 -262 b 313 -285 192 -275 251 -285 z "},"z":{"ha":536,"x_min":0,"x_max":0,"o":"m 60 0 l 517 0 l 517 90 l 196 90 l 507 603 l 507 681 l 65 681 l 65 590 l 374 590 l 57 75 z "},"à":{"ha":606,"x_min":0,"x_max":0,"o":"m 239 -6 b 521 -1 344 -6 521 -1 b 526 265 521 -1 526 140 b 519 519 526 344 524 446 b 282 693 511 625 451 693 b 113 674 217 693 156 683 l 115 581 b 268 600 161 592 217 600 b 404 506 369 600 404 568 l 157 353 b 47 181 94 311 47 257 l 47 156 b 239 -6 47 61 118 -6 z m 258 83 b 158 164 189 83 158 118 l 158 196 b 218 292 158 240 186 271 l 408 406 b 413 246 408 406 413 319 b 410 88 413 174 410 88 b 258 83 410 88 322 83 z m 254 765 l 361 765 l 361 774 l 224 917 l 86 917 l 86 908 z "},"á":{"ha":606,"x_min":0,"x_max":0,"o":"m 239 -6 b 521 -1 344 -6 521 -1 b 526 265 521 -1 526 140 b 519 519 526 344 524 446 b 282 693 511 625 451 693 b 113 674 217 693 156 683 l 115 581 b 268 600 161 592 217 600 b 404 506 369 600 404 568 l 157 353 b 47 181 94 311 47 257 l 47 156 b 239 -6 47 61 118 -6 z m 258 83 b 158 164 189 83 158 118 l 158 196 b 218 292 158 240 186 271 l 408 406 b 413 246 408 406 413 319 b 410 88 413 174 410 88 b 258 83 410 88 322 83 z m 257 765 l 363 765 l 532 908 l 532 917 l 394 917 l 257 774 z "},"â":{"ha":606,"x_min":0,"x_max":0,"o":"m 239 -6 b 521 -1 344 -6 521 -1 b 526 265 521 -1 526 140 b 519 519 526 344 524 446 b 282 693 511 625 451 693 b 113 674 217 693 156 683 l 115 581 b 268 600 161 592 217 600 b 404 506 369 600 404 568 l 157 353 b 47 181 94 311 47 257 l 47 156 b 239 -6 47 61 118 -6 z m 258 83 b 158 164 189 83 158 118 l 158 196 b 218 292 158 240 186 271 l 408 406 b 413 246 408 406 413 319 b 410 88 413 174 410 88 b 258 83 410 88 322 83 z m 118 765 l 219 765 l 311 851 l 403 765 l 503 765 l 503 774 l 367 921 l 257 921 l 118 774 z "},"ã":{"ha":606,"x_min":0,"x_max":0,"o":"m 239 -6 b 521 -1 344 -6 521 -1 b 526 265 521 -1 526 140 b 519 519 526 344 524 446 b 282 693 511 625 451 693 b 113 674 217 693 156 683 l 115 581 b 268 600 161 592 217 600 b 404 506 369 600 404 568 l 157 353 b 47 181 94 311 47 257 l 47 156 b 239 -6 47 61 118 -6 z m 258 83 b 158 164 189 83 158 118 l 158 196 b 218 292 158 240 186 271 l 408 406 b 413 246 408 406 413 319 b 410 88 413 174 410 88 b 258 83 410 88 322 83 z m 394 760 b 517 860 451 760 494 801 l 468 910 l 460 910 b 393 849 447 876 429 849 b 236 915 333 849 314 915 b 115 828 175 915 143 875 l 161 776 l 169 776 b 236 828 186 807 206 828 b 394 760 290 828 315 760 z "},"ä":{"ha":606,"x_min":0,"x_max":0,"o":"m 239 -6 b 521 -1 344 -6 521 -1 b 526 265 521 -1 526 140 b 519 519 526 344 524 446 b 282 693 511 625 451 693 b 113 674 217 693 156 683 l 115 581 b 268 600 161 592 217 600 b 404 506 369 600 404 568 l 157 353 b 47 181 94 311 47 257 l 47 156 b 239 -6 47 61 118 -6 z m 258 83 b 158 164 189 83 158 118 l 158 196 b 218 292 158 240 186 271 l 408 406 b 413 246 408 406 413 319 b 410 88 413 174 410 88 b 258 83 410 88 322 83 z m 135 776 l 240 776 l 240 893 l 135 893 z m 379 776 l 485 776 l 485 893 l 379 893 z "},"ā":{"ha":606,"x_min":0,"x_max":0,"o":"m 239 -6 b 521 -1 344 -6 521 -1 b 526 265 521 -1 526 140 b 519 519 526 344 524 446 b 282 693 511 625 451 693 b 113 674 217 693 156 683 l 115 581 b 268 600 161 592 217 600 b 404 506 369 600 404 568 l 157 353 b 47 181 94 311 47 257 l 47 156 b 239 -6 47 61 118 -6 z m 258 83 b 158 164 189 83 158 118 l 158 196 b 218 292 158 240 186 271 l 408 406 b 413 246 408 406 413 319 b 410 88 413 174 410 88 b 258 83 410 88 322 83 z m 142 786 l 481 786 l 481 871 l 142 871 z "},"ă":{"ha":606,"x_min":0,"x_max":0,"o":"m 239 -6 b 521 -1 344 -6 521 -1 b 526 265 521 -1 526 140 b 519 519 526 344 524 446 b 282 693 511 625 451 693 b 113 674 217 693 156 683 l 115 581 b 268 600 161 592 217 600 b 404 506 369 600 404 568 l 157 353 b 47 181 94 311 47 257 l 47 156 b 239 -6 47 61 118 -6 z m 258 83 b 158 164 189 83 158 118 l 158 196 b 218 292 158 240 186 271 l 408 406 b 413 246 408 406 413 319 b 410 88 413 174 410 88 b 258 83 410 88 322 83 z m 310 757 b 490 910 417 757 476 813 l 414 910 b 313 842 406 864 364 842 b 208 910 254 842 215 865 l 131 910 b 310 757 144 813 207 757 z "},"å":{"ha":606,"x_min":0,"x_max":0,"o":"m 239 -6 b 521 -1 344 -6 521 -1 b 526 265 521 -1 526 140 b 519 519 526 344 524 446 b 282 693 511 625 451 693 b 113 674 217 693 156 683 l 115 581 b 268 600 161 592 217 600 b 404 506 369 600 404 568 l 157 353 b 47 181 94 311 47 257 l 47 156 b 239 -6 47 61 118 -6 z m 258 83 b 158 164 189 83 158 118 l 158 196 b 218 292 158 240 186 271 l 408 406 b 413 246 408 406 413 319 b 410 88 413 174 410 88 b 258 83 410 88 322 83 z m 310 800 b 246 864 272 800 246 826 b 310 929 246 901 272 929 b 375 864 347 929 375 901 b 310 800 375 826 347 800 z m 310 740 b 443 864 390 740 443 794 b 311 988 443 933 393 988 b 178 864 229 988 178 933 b 310 740 178 794 228 740 z "},"ą":{"ha":606,"x_min":0,"x_max":0,"o":"m 454 -257 b 538 -242 488 -257 518 -249 l 533 -172 b 471 -181 514 -176 492 -181 b 425 -136 442 -181 425 -167 b 521 -1 425 -81 489 -26 b 526 265 521 -1 526 140 b 519 519 526 344 524 446 b 282 693 511 625 451 693 b 113 674 217 693 156 683 l 115 581 b 268 600 161 592 217 600 b 404 506 369 600 404 568 l 157 353 b 47 181 94 311 47 257 l 47 156 b 239 -6 47 61 118 -6 b 431 -3 296 -6 371 -4 b 336 -153 382 -39 336 -92 b 454 -257 336 -218 379 -257 z m 258 83 b 158 164 189 83 158 118 l 158 196 b 218 292 158 240 186 271 l 408 406 b 413 246 408 406 413 319 b 410 88 413 174 410 88 b 258 83 410 88 322 83 z "},"æ":{"ha":925,"x_min":0,"x_max":0,"o":"m 278 81 b 158 165 185 81 158 126 l 158 196 b 218 292 158 240 185 269 l 389 394 b 388 319 388 376 388 339 b 414 125 388 251 393 174 b 278 81 381 99 340 81 z m 264 -12 b 464 50 360 -12 419 14 b 642 -12 496 11 557 -12 b 810 15 708 -12 774 1 l 806 107 b 651 79 767 94 708 79 b 517 188 568 79 532 111 l 871 404 b 872 457 872 421 872 439 b 640 693 872 613 808 693 b 472 632 560 693 504 668 b 279 693 439 674 371 693 b 111 672 217 693 156 682 l 115 581 b 268 601 161 593 213 601 b 403 536 350 601 393 578 b 392 497 399 525 394 511 l 157 353 b 47 181 92 308 47 260 l 47 156 b 264 -12 47 67 115 -12 z m 507 340 b 643 600 507 506 514 600 b 758 457 733 600 758 553 l 758 428 l 507 275 z "},"ǽ":{"ha":925,"x_min":0,"x_max":0,"o":"m 419 765 l 525 765 l 694 908 l 694 917 l 557 917 l 419 774 z m 278 81 b 158 165 185 81 158 126 l 158 196 b 218 292 158 240 185 269 l 389 394 b 388 319 388 376 388 339 b 414 125 388 251 393 174 b 278 81 381 99 340 81 z m 264 -12 b 464 50 360 -12 419 14 b 642 -12 496 11 557 -12 b 810 15 708 -12 774 1 l 806 107 b 651 79 767 94 708 79 b 517 188 568 79 532 111 l 871 404 b 872 457 872 421 872 439 b 640 693 872 613 808 693 b 472 632 560 693 504 668 b 279 693 439 674 371 693 b 111 672 217 693 156 682 l 115 581 b 268 601 161 593 213 601 b 403 536 350 601 393 578 b 392 497 399 525 394 511 l 157 353 b 47 181 92 308 47 260 l 47 156 b 264 -12 47 67 115 -12 z m 507 340 b 643 600 507 506 514 600 b 758 457 733 600 758 553 l 758 428 l 507 275 z "},"ć":{"ha":528,"x_min":0,"x_max":0,"o":"m 256 765 l 361 765 l 531 908 l 531 917 l 393 917 l 256 774 z m 321 -12 b 486 15 390 -12 446 1 l 485 110 b 332 82 446 94 386 82 b 183 338 194 82 183 164 b 335 600 183 518 207 600 b 472 582 375 600 431 592 l 475 674 b 321 693 429 685 375 693 b 64 325 90 693 64 533 b 321 -12 64 138 85 -12 z "},"ĉ":{"ha":528,"x_min":0,"x_max":0,"o":"m 117 765 l 218 765 l 310 851 l 401 765 l 501 765 l 501 774 l 365 921 l 256 921 l 117 774 z m 321 -12 b 486 15 390 -12 446 1 l 485 110 b 332 82 446 94 386 82 b 183 338 194 82 183 164 b 335 600 183 518 207 600 b 472 582 375 600 431 592 l 475 674 b 321 693 429 685 375 693 b 64 325 90 693 64 533 b 321 -12 64 138 85 -12 z "},"č":{"ha":528,"x_min":0,"x_max":0,"o":"m 254 764 l 364 764 l 500 911 l 500 919 l 400 919 l 308 833 l 217 919 l 115 919 l 115 911 z m 321 -12 b 486 15 390 -12 446 1 l 485 110 b 332 82 446 94 386 82 b 183 338 194 82 183 164 b 335 600 183 518 207 600 b 472 582 375 600 431 592 l 475 674 b 321 693 429 685 375 693 b 64 325 90 693 64 533 b 321 -12 64 138 85 -12 z "},"ċ":{"ha":528,"x_min":0,"x_max":0,"o":"m 321 -12 b 486 15 390 -12 446 1 l 485 110 b 332 82 446 94 386 82 b 183 338 194 82 183 164 b 335 600 183 518 207 600 b 472 582 375 600 431 592 l 475 674 b 321 693 429 685 375 693 b 64 325 90 693 64 533 b 321 -12 64 138 85 -12 z m 308 775 b 374 835 349 775 374 796 b 308 894 374 874 349 894 b 244 835 268 894 244 874 b 308 775 244 796 268 775 z "},"ç":{"ha":528,"x_min":0,"x_max":0,"o":"m 246 -261 b 343 -49 410 -246 461 -107 l 343 -12 b 486 15 401 -10 450 3 l 485 110 b 332 82 446 94 386 82 b 183 338 194 82 183 164 b 335 600 183 518 207 600 b 472 582 375 600 431 592 l 475 674 b 321 693 429 685 375 693 b 64 325 90 693 64 533 b 258 -8 64 156 81 17 l 258 -78 b 208 -200 369 -125 313 -192 z "},"ď":{"ha":763,"x_min":0,"x_max":0,"o":"m 700 732 l 769 947 l 769 982 l 676 992 l 631 740 z m 249 -12 b 367 24 296 -12 335 3 l 443 75 l 451 0 l 556 0 l 556 931 l 438 931 l 438 681 l 321 681 b 64 333 103 681 64 542 b 249 -12 64 99 114 -12 z m 278 86 b 183 329 199 86 183 174 b 329 590 183 503 203 590 l 438 590 l 438 169 l 346 107 b 278 86 324 93 300 86 z "},"đ":{"ha":638,"x_min":0,"x_max":0,"o":"m 257 779 l 438 779 l 438 681 l 321 681 b 64 333 103 681 64 542 b 249 -12 64 99 114 -12 b 367 24 296 -12 335 3 l 443 75 l 451 0 l 556 0 l 556 779 l 617 779 l 617 864 l 556 864 l 556 931 l 438 931 l 438 864 l 257 864 z m 278 86 b 183 329 199 86 183 174 b 329 590 183 503 203 590 l 438 590 l 438 169 l 346 107 b 278 86 324 93 300 86 z "},"è":{"ha":601,"x_min":0,"x_max":0,"o":"m 318 -12 b 486 15 385 -12 450 1 l 482 107 b 329 79 443 94 385 79 b 193 189 244 79 208 111 l 547 404 b 550 457 549 421 550 439 b 317 693 550 613 485 693 b 64 339 89 693 64 543 b 318 -12 64 140 88 -12 z m 183 340 b 319 600 183 506 192 600 b 435 457 410 600 435 553 l 435 428 l 183 275 z m 261 765 l 368 765 l 368 774 l 231 917 l 93 917 l 93 908 z "},"é":{"ha":601,"x_min":0,"x_max":0,"o":"m 264 765 l 369 765 l 539 908 l 539 917 l 401 917 l 264 774 z m 318 -12 b 486 15 385 -12 450 1 l 482 107 b 329 79 443 94 385 79 b 193 189 244 79 208 111 l 547 404 b 550 457 549 421 550 439 b 317 693 550 613 485 693 b 64 339 89 693 64 543 b 318 -12 64 140 88 -12 z m 183 340 b 319 600 183 506 192 600 b 435 457 410 600 435 553 l 435 428 l 183 275 z "},"ê":{"ha":601,"x_min":0,"x_max":0,"o":"m 125 765 l 226 765 l 318 851 l 410 765 l 510 765 l 510 774 l 374 921 l 264 921 l 125 774 z m 318 -12 b 486 15 385 -12 450 1 l 482 107 b 329 79 443 94 385 79 b 193 189 244 79 208 111 l 547 404 b 550 457 549 421 550 439 b 317 693 550 613 485 693 b 64 339 89 693 64 543 b 318 -12 64 140 88 -12 z m 183 340 b 319 600 183 506 192 600 b 435 457 410 600 435 553 l 435 428 l 183 275 z "},"ě":{"ha":601,"x_min":0,"x_max":0,"o":"m 263 764 l 372 764 l 508 911 l 508 919 l 408 919 l 317 833 l 225 919 l 124 919 l 124 911 z m 318 -12 b 486 15 385 -12 450 1 l 482 107 b 329 79 443 94 385 79 b 193 189 244 79 208 111 l 547 404 b 550 457 549 421 550 439 b 317 693 550 613 485 693 b 64 339 89 693 64 543 b 318 -12 64 140 88 -12 z m 183 340 b 319 600 183 506 192 600 b 435 457 410 600 435 553 l 435 428 l 183 275 z "},"ë":{"ha":601,"x_min":0,"x_max":0,"o":"m 142 776 l 247 776 l 247 893 l 142 893 z m 386 776 l 492 776 l 492 893 l 386 893 z m 318 -12 b 486 15 385 -12 450 1 l 482 107 b 329 79 443 94 385 79 b 193 189 244 79 208 111 l 547 404 b 550 457 549 421 550 439 b 317 693 550 613 485 693 b 64 339 89 693 64 543 b 318 -12 64 140 88 -12 z m 183 340 b 319 600 183 506 192 600 b 435 457 410 600 435 553 l 435 428 l 183 275 z "},"ē":{"ha":601,"x_min":0,"x_max":0,"o":"m 318 -12 b 486 15 385 -12 450 1 l 482 107 b 329 79 443 94 385 79 b 193 189 244 79 208 111 l 547 404 b 550 457 549 421 550 439 b 317 693 550 613 485 693 b 64 339 89 693 64 543 b 318 -12 64 140 88 -12 z m 183 340 b 319 600 183 506 192 600 b 435 457 410 600 435 553 l 435 428 l 183 275 z m 149 786 l 488 786 l 488 871 l 149 871 z "},"ĕ":{"ha":601,"x_min":0,"x_max":0,"o":"m 318 -12 b 486 15 385 -12 450 1 l 482 107 b 329 79 443 94 385 79 b 193 189 244 79 208 111 l 547 404 b 550 457 549 421 550 439 b 317 693 550 613 485 693 b 64 339 89 693 64 543 b 318 -12 64 140 88 -12 z m 183 340 b 319 600 183 506 192 600 b 435 457 410 600 435 553 l 435 428 l 183 275 z m 317 757 b 497 910 424 757 483 813 l 421 910 b 319 842 413 864 371 842 b 215 910 261 842 222 865 l 138 910 b 317 757 151 813 214 757 z "},"ė":{"ha":601,"x_min":0,"x_max":0,"o":"m 318 -12 b 486 15 385 -12 450 1 l 482 107 b 329 79 443 94 385 79 b 193 189 244 79 208 111 l 547 404 b 550 457 549 421 550 439 b 317 693 550 613 485 693 b 64 339 89 693 64 543 b 318 -12 64 140 88 -12 z m 183 340 b 319 600 183 506 192 600 b 435 457 410 600 435 553 l 435 428 l 183 275 z m 317 775 b 382 835 357 775 382 796 b 317 894 382 874 357 894 b 253 835 276 894 253 874 b 317 775 253 796 276 775 z "},"ę":{"ha":601,"x_min":0,"x_max":0,"o":"m 318 -12 b 369 -10 335 -12 353 -11 b 285 -151 325 -46 285 -94 b 403 -256 285 -217 328 -256 b 486 -240 436 -256 467 -247 l 482 -171 b 419 -179 463 -175 440 -179 b 374 -135 390 -179 374 -165 b 486 15 374 -79 435 -24 l 482 107 b 329 79 443 94 385 79 b 193 189 244 79 208 111 l 547 404 b 550 457 549 421 550 439 b 317 693 550 613 485 693 b 64 339 89 693 64 543 b 318 -12 64 140 88 -12 z m 183 340 b 319 600 183 506 192 600 b 435 457 410 600 435 553 l 435 428 l 183 275 z "},"ĝ":{"ha":633,"x_min":0,"x_max":0,"o":"m 118 765 l 219 765 l 311 851 l 403 765 l 503 765 l 503 774 l 367 921 l 257 921 l 118 774 z m 296 -285 b 596 -75 526 -285 596 -201 b 408 88 596 42 535 88 l 239 88 b 221 100 228 88 221 92 b 235 118 221 107 226 113 l 435 239 b 547 451 506 282 547 342 b 488 601 547 538 517 579 l 608 588 l 608 681 l 406 681 b 304 693 382 686 353 693 b 64 428 125 693 64 601 b 206 192 64 268 114 192 l 133 146 b 83 68 101 125 83 100 b 157 0 83 28 114 0 l 385 0 b 489 -82 467 0 489 -26 b 311 -197 489 -156 449 -197 b 175 -140 224 -197 175 -179 b 182 -106 175 -132 176 -118 l 76 -106 b 61 -162 67 -122 61 -139 b 296 -285 61 -240 132 -285 z m 268 250 b 181 421 200 250 181 322 b 310 600 181 549 214 600 b 431 446 394 600 431 560 b 372 294 431 369 415 319 l 315 261 b 268 250 306 256 290 250 z "},"ğ":{"ha":633,"x_min":0,"x_max":0,"o":"m 296 -285 b 596 -75 526 -285 596 -201 b 408 88 596 42 535 88 l 239 88 b 221 100 228 88 221 92 b 235 118 221 107 226 113 l 435 239 b 547 451 506 282 547 342 b 488 601 547 538 517 579 l 608 588 l 608 681 l 406 681 b 304 693 382 686 353 693 b 64 428 125 693 64 601 b 206 192 64 268 114 192 l 133 146 b 83 68 101 125 83 100 b 157 0 83 28 114 0 l 385 0 b 489 -82 467 0 489 -26 b 311 -197 489 -156 449 -197 b 175 -140 224 -197 175 -179 b 182 -106 175 -132 176 -118 l 76 -106 b 61 -162 67 -122 61 -139 b 296 -285 61 -240 132 -285 z m 268 250 b 181 421 200 250 181 322 b 310 600 181 549 214 600 b 431 446 394 600 431 560 b 372 294 431 369 415 319 l 315 261 b 268 250 306 256 290 250 z m 311 757 b 492 910 418 757 478 813 l 415 910 b 314 842 407 864 365 842 b 210 910 256 842 217 865 l 132 910 b 311 757 146 813 208 757 z "},"ġ":{"ha":633,"x_min":0,"x_max":0,"o":"m 296 -285 b 596 -75 526 -285 596 -201 b 408 88 596 42 535 88 l 239 88 b 221 100 228 88 221 92 b 235 118 221 107 226 113 l 435 239 b 547 451 506 282 547 342 b 488 601 547 538 517 579 l 608 588 l 608 681 l 406 681 b 304 693 382 686 353 693 b 64 428 125 693 64 601 b 206 192 64 268 114 192 l 133 146 b 83 68 101 125 83 100 b 157 0 83 28 114 0 l 385 0 b 489 -82 467 0 489 -26 b 311 -197 489 -156 449 -197 b 175 -140 224 -197 175 -179 b 182 -106 175 -132 176 -118 l 76 -106 b 61 -162 67 -122 61 -139 b 296 -285 61 -240 132 -285 z m 268 250 b 181 421 200 250 181 322 b 310 600 181 549 214 600 b 431 446 394 600 431 560 b 372 294 431 369 415 319 l 315 261 b 268 250 306 256 290 250 z m 310 775 b 375 835 350 775 375 796 b 310 894 375 874 350 894 b 246 835 269 894 246 874 b 310 775 246 796 269 775 z "},"ģ":{"ha":633,"x_min":0,"x_max":0,"o":"m 399 1008 l 324 1008 l 263 840 l 263 792 l 368 792 z m 296 -285 b 596 -75 526 -285 596 -201 b 408 88 596 42 535 88 l 239 88 b 221 100 228 88 221 92 b 235 118 221 107 226 113 l 435 239 b 547 451 506 282 547 342 b 488 601 547 538 517 579 l 608 588 l 608 681 l 406 681 b 304 693 382 686 353 693 b 64 428 125 693 64 601 b 206 192 64 268 114 192 l 133 146 b 83 68 101 125 83 100 b 157 0 83 28 114 0 l 385 0 b 489 -82 467 0 489 -26 b 311 -197 489 -156 449 -197 b 175 -140 224 -197 175 -179 b 182 -106 175 -132 176 -118 l 76 -106 b 61 -162 67 -122 61 -139 b 296 -285 61 -240 132 -285 z m 268 250 b 181 421 200 250 181 322 b 310 600 181 549 214 600 b 431 446 394 600 431 560 b 372 294 431 369 415 319 l 315 261 b 268 250 306 256 290 250 z "},"ĥ":{"ha":656,"x_min":0,"x_max":0,"o":"m -53 1001 l 49 1001 l 140 1088 l 232 1001 l 332 1001 l 332 1010 l 196 1157 l 86 1157 l -53 1010 z m 82 0 l 201 0 l 201 510 l 275 557 b 369 590 311 579 339 590 b 453 503 428 590 453 557 l 453 0 l 574 0 l 574 506 b 401 692 574 625 508 692 b 257 644 338 692 296 668 l 201 610 l 201 931 l 82 931 z "},"ħ":{"ha":656,"x_min":0,"x_max":0,"o":"m 15 779 l 82 779 l 82 0 l 201 0 l 201 510 l 275 557 b 369 590 311 579 339 590 b 453 503 428 590 453 557 l 453 0 l 574 0 l 574 506 b 401 692 574 625 508 692 b 257 644 338 692 296 668 l 201 610 l 201 779 l 406 779 l 406 864 l 201 864 l 201 931 l 82 931 l 82 864 l 15 864 z "},"ì":{"ha":313,"x_min":0,"x_max":0,"o":"m 97 0 l 215 0 l 215 681 l 97 681 z m 100 776 l 207 776 l 207 785 l 69 928 l -68 928 l -68 919 z "},"í":{"ha":313,"x_min":0,"x_max":0,"o":"m 103 776 l 208 776 l 378 919 l 378 928 l 240 928 l 103 785 z m 97 0 l 215 0 l 215 681 l 97 681 z "},"î":{"ha":313,"x_min":0,"x_max":0,"o":"m -37 776 l 64 776 l 156 863 l 247 776 l 347 776 l 347 785 l 211 932 l 101 932 l -37 785 z m 97 0 l 215 0 l 215 681 l 97 681 z "},"ĩ":{"ha":313,"x_min":0,"x_max":0,"o":"m 97 0 l 215 0 l 215 681 l 97 681 z m 240 771 b 363 871 297 771 340 813 l 314 921 l 306 921 b 239 860 293 888 275 860 b 82 926 179 860 160 926 b -39 839 21 926 -11 886 l 7 788 l 15 788 b 82 839 32 818 51 839 b 240 771 136 839 161 771 z "},"ï":{"ha":313,"x_min":0,"x_max":0,"o":"m -19 788 l 86 788 l 86 904 l -19 904 z m 225 788 l 331 788 l 331 904 l 225 904 z m 97 0 l 215 0 l 215 681 l 97 681 z "},"ī":{"ha":313,"x_min":0,"x_max":0,"o":"m 97 0 l 215 0 l 215 681 l 97 681 z m -12 797 l 326 797 l 326 882 l -12 882 z "},"ĭ":{"ha":313,"x_min":0,"x_max":0,"o":"m 97 0 l 215 0 l 215 681 l 97 681 z m 156 768 b 336 921 263 768 322 824 l 260 921 b 158 853 251 875 210 853 b 54 921 100 853 61 876 l -24 921 b 156 768 -10 824 53 768 z "},"į":{"ha":313,"x_min":0,"x_max":0,"o":"m 97 0 l 128 0 b 31 -151 79 -36 31 -89 b 149 -256 31 -217 74 -256 b 232 -240 182 -256 213 -247 l 228 -171 b 165 -179 208 -175 186 -179 b 119 -135 136 -179 119 -165 b 215 0 119 -79 183 -25 l 215 681 l 97 681 z m 92 788 l 219 788 l 219 904 l 92 904 z "},"ı":{"ha":313,"x_min":0,"x_max":0,"o":"m 97 0 l 215 0 l 215 681 l 97 681 z "},"ĳ":{"ha":624,"x_min":0,"x_max":0,"o":"m 97 0 l 215 0 l 215 681 l 97 681 z m 92 788 l 219 788 l 219 904 l 92 904 z m 326 -285 b 528 -93 447 -285 528 -211 l 528 681 l 410 681 l 410 -100 b 313 -192 410 -158 375 -192 b 261 -185 297 -192 281 -189 l 257 -275 b 326 -285 276 -281 301 -285 z m 404 788 l 532 788 l 532 904 l 404 904 z "},"ȷ":{"ha":315,"x_min":0,"x_max":0,"o":"m 19 -285 b 218 -93 138 -285 218 -211 l 218 681 l 100 681 l 100 -100 b 4 -192 100 -158 65 -192 b -49 -185 -14 -192 -29 -189 l -51 -275 b 19 -285 -32 -281 -10 -285 z "},"ĵ":{"ha":315,"x_min":0,"x_max":0,"o":"m 19 -285 b 218 -93 138 -285 218 -211 l 218 681 l 100 681 l 100 -100 b 4 -192 100 -158 65 -192 b -49 -185 -14 -192 -29 -189 l -51 -275 b 19 -285 -32 -281 -10 -285 z m -35 765 l 67 765 l 158 851 l 250 765 l 350 765 l 350 774 l 214 921 l 104 921 l -35 774 z "},"ķ":{"ha":642,"x_min":0,"x_max":0,"o":"m 243 -269 l 318 -269 l 379 -101 l 379 -53 l 274 -53 z m 82 0 l 201 0 l 201 318 l 261 392 l 396 265 b 454 115 439 224 454 181 l 454 0 l 572 0 l 572 119 b 488 333 572 213 549 271 l 332 481 l 388 549 b 454 582 404 571 422 582 l 550 582 l 553 681 l 433 681 b 324 626 382 681 351 663 l 201 474 l 201 931 l 82 931 z "},"ĸ":{"ha":636,"x_min":0,"x_max":0,"o":"m 82 0 l 201 0 l 201 318 l 261 392 l 396 265 b 454 115 439 224 454 181 l 454 0 l 572 0 l 572 119 b 488 333 572 213 549 272 l 332 481 l 388 549 b 454 582 404 571 422 582 l 550 582 l 553 681 l 433 681 b 324 626 382 681 351 663 l 201 474 l 201 681 l 82 681 z "},"ĺ":{"ha":350,"x_min":0,"x_max":0,"o":"m 89 1001 l 194 1001 l 364 1144 l 364 1153 l 226 1153 l 89 1010 z m 261 -11 b 350 3 297 -11 328 -4 l 346 93 b 289 83 326 88 307 83 b 201 175 233 83 201 113 l 201 931 l 82 931 l 82 171 b 261 -11 82 51 146 -11 z "},"ľ":{"ha":443,"x_min":0,"x_max":0,"o":"m 344 726 l 414 942 l 414 976 l 321 986 l 275 735 z m 261 -11 b 350 3 297 -11 328 -4 l 346 93 b 289 83 326 88 307 83 b 201 175 233 83 201 113 l 201 931 l 82 931 l 82 171 b 261 -11 82 51 146 -11 z "},"ļ":{"ha":350,"x_min":0,"x_max":0,"o":"m 149 -269 l 224 -269 l 285 -101 l 285 -53 l 179 -53 z m 261 -11 b 350 3 297 -11 328 -4 l 346 93 b 289 83 326 88 307 83 b 201 175 233 83 201 113 l 201 931 l 82 931 l 82 171 b 261 -11 82 51 146 -11 z "},"ł":{"ha":350,"x_min":0,"x_max":0,"o":"m 261 -11 b 350 3 297 -11 328 -4 l 346 93 b 289 83 326 88 307 83 b 201 175 233 83 201 113 l 201 410 l 347 479 l 347 592 l 338 592 l 201 526 l 201 931 l 82 931 l 82 471 l -11 426 l -11 314 l -1 314 l 82 353 l 82 171 b 261 -11 82 51 146 -11 z "},"ŀ":{"ha":443,"x_min":0,"x_max":0,"o":"m 261 -11 b 350 3 297 -11 328 -4 l 346 93 b 289 83 326 88 307 83 b 201 175 233 83 201 113 l 201 931 l 82 931 l 82 171 b 261 -11 82 51 146 -11 z m 360 394 b 425 454 400 394 425 415 b 360 515 425 493 400 515 b 296 454 319 515 296 493 b 360 394 296 415 319 394 z "},"ń":{"ha":656,"x_min":0,"x_max":0,"o":"m 274 765 l 379 765 l 549 908 l 549 917 l 411 917 l 274 774 z m 82 0 l 201 0 l 201 510 l 275 557 b 371 590 308 579 339 590 b 453 503 426 590 453 557 l 453 0 l 574 0 l 574 508 b 404 692 574 628 510 692 b 263 649 346 692 306 676 l 194 604 l 188 681 l 82 681 z "},"ň":{"ha":656,"x_min":0,"x_max":0,"o":"m 274 764 l 383 764 l 519 911 l 519 919 l 419 919 l 328 833 l 236 919 l 135 919 l 135 911 z m 82 0 l 201 0 l 201 510 l 275 557 b 371 590 308 579 339 590 b 453 503 426 590 453 557 l 453 0 l 574 0 l 574 508 b 404 692 574 628 510 692 b 263 649 346 692 306 676 l 194 604 l 188 681 l 82 681 z "},"ñ":{"ha":656,"x_min":0,"x_max":0,"o":"m 82 0 l 201 0 l 201 510 l 275 557 b 371 590 308 579 339 590 b 453 503 426 590 453 557 l 453 0 l 574 0 l 574 508 b 404 692 574 628 510 692 b 263 649 346 692 306 676 l 194 604 l 188 681 l 82 681 z m 413 760 b 535 860 469 760 513 801 l 486 910 l 478 910 b 411 849 465 876 447 849 b 254 915 351 849 332 915 b 133 828 193 915 161 875 l 179 776 l 188 776 b 254 828 204 807 224 828 b 413 760 308 828 333 760 z "},"ņ":{"ha":656,"x_min":0,"x_max":0,"o":"m 246 -269 l 321 -269 l 382 -101 l 382 -53 l 276 -53 z m 82 0 l 201 0 l 201 510 l 275 557 b 371 590 308 579 339 590 b 453 503 426 590 453 557 l 453 0 l 574 0 l 574 508 b 404 692 574 628 510 692 b 263 649 346 692 306 676 l 194 604 l 188 681 l 82 681 z "},"ŉ":{"ha":656,"x_min":0,"x_max":0,"o":"m 0 742 l 75 742 l 136 910 l 136 958 l 31 958 z m 82 0 l 201 0 l 201 510 l 275 557 b 371 590 308 579 339 590 b 453 503 426 590 453 557 l 453 0 l 574 0 l 574 508 b 404 692 574 628 510 692 b 263 649 346 692 306 676 l 194 604 l 188 681 l 82 681 z "},"ò":{"ha":629,"x_min":0,"x_max":0,"o":"m 315 82 b 183 335 192 82 183 183 b 318 600 183 478 190 600 b 446 353 442 600 446 486 b 315 82 446 183 439 82 z m 313 -12 b 567 353 538 -12 567 144 b 319 693 567 538 543 693 b 64 328 96 693 64 536 b 313 -12 64 144 88 -12 z m 264 765 l 371 765 l 371 774 l 233 917 l 96 917 l 96 908 z "},"ó":{"ha":629,"x_min":0,"x_max":0,"o":"m 267 765 l 372 765 l 542 908 l 542 917 l 404 917 l 267 774 z m 315 82 b 183 335 192 82 183 183 b 318 600 183 478 190 600 b 446 353 442 600 446 486 b 315 82 446 183 439 82 z m 313 -12 b 567 353 538 -12 567 144 b 319 693 567 538 543 693 b 64 328 96 693 64 536 b 313 -12 64 144 88 -12 z "},"ô":{"ha":629,"x_min":0,"x_max":0,"o":"m 128 765 l 229 765 l 321 851 l 413 765 l 513 765 l 513 774 l 376 921 l 267 921 l 128 774 z m 315 82 b 183 335 192 82 183 183 b 318 600 183 478 190 600 b 446 353 442 600 446 486 b 315 82 446 183 439 82 z m 313 -12 b 567 353 538 -12 567 144 b 319 693 567 538 543 693 b 64 328 96 693 64 536 b 313 -12 64 144 88 -12 z "},"õ":{"ha":629,"x_min":0,"x_max":0,"o":"m 315 82 b 183 335 192 82 183 183 b 318 600 183 478 190 600 b 446 353 442 600 446 486 b 315 82 446 183 439 82 z m 313 -12 b 567 353 538 -12 567 144 b 319 693 567 538 543 693 b 64 328 96 693 64 536 b 313 -12 64 144 88 -12 z m 404 760 b 526 860 461 760 504 801 l 478 910 l 469 910 b 403 849 457 876 439 849 b 246 915 343 849 324 915 b 125 828 185 915 153 875 l 171 776 l 179 776 b 246 828 196 807 215 828 b 404 760 300 828 325 760 z "},"ö":{"ha":629,"x_min":0,"x_max":0,"o":"m 144 776 l 250 776 l 250 893 l 144 893 z m 389 776 l 494 776 l 494 893 l 389 893 z m 315 82 b 183 335 192 82 183 183 b 318 600 183 478 190 600 b 446 353 442 600 446 486 b 315 82 446 183 439 82 z m 313 -12 b 567 353 538 -12 567 144 b 319 693 567 538 543 693 b 64 328 96 693 64 536 b 313 -12 64 144 88 -12 z "},"ō":{"ha":629,"x_min":0,"x_max":0,"o":"m 151 786 l 490 786 l 490 871 l 151 871 z m 315 82 b 183 335 192 82 183 183 b 318 600 183 478 190 600 b 446 353 442 600 446 486 b 315 82 446 183 439 82 z m 313 -12 b 567 353 538 -12 567 144 b 319 693 567 538 543 693 b 64 328 96 693 64 536 b 313 -12 64 144 88 -12 z "},"ŏ":{"ha":629,"x_min":0,"x_max":0,"o":"m 315 82 b 183 335 192 82 183 183 b 318 600 183 478 190 600 b 446 353 442 600 446 486 b 315 82 446 183 439 82 z m 313 -12 b 567 353 538 -12 567 144 b 319 693 567 538 543 693 b 64 328 96 693 64 536 b 313 -12 64 144 88 -12 z m 319 757 b 500 910 426 757 486 813 l 424 910 b 322 842 415 864 374 842 b 218 910 264 842 225 865 l 140 910 b 319 757 154 813 217 757 z "},"ő":{"ha":629,"x_min":0,"x_max":0,"o":"m 163 765 l 251 765 l 356 908 l 356 917 l 231 917 l 163 774 z m 388 765 l 476 765 l 581 908 l 581 917 l 456 917 l 388 774 z m 315 82 b 183 335 192 82 183 183 b 318 600 183 478 190 600 b 446 353 442 600 446 486 b 315 82 446 183 439 82 z m 313 -12 b 567 353 538 -12 567 144 b 319 693 567 538 543 693 b 64 328 96 693 64 536 b 313 -12 64 144 88 -12 z "},"ø":{"ha":629,"x_min":0,"x_max":0,"o":"m 313 -12 b 567 353 538 -12 567 144 b 478 649 567 478 556 590 l 532 783 l 532 792 l 450 792 l 406 682 b 319 693 381 689 353 693 b 64 328 96 693 64 536 b 167 21 64 196 76 78 l 115 -104 l 115 -111 l 197 -111 l 240 -6 b 313 -12 261 -10 285 -12 z m 315 82 b 183 335 192 82 183 183 b 318 600 183 478 190 600 b 446 353 442 600 446 486 b 315 82 446 183 439 82 z "},"ǿ":{"ha":629,"x_min":0,"x_max":0,"o":"m 313 -12 b 567 353 538 -12 567 144 b 478 649 567 478 556 590 l 532 783 l 532 792 l 450 792 l 406 682 b 319 693 381 689 353 693 b 64 328 96 693 64 536 b 167 21 64 196 76 78 l 115 -104 l 115 -111 l 197 -111 l 240 -6 b 313 -12 261 -10 285 -12 z m 315 82 b 183 335 192 82 183 183 b 318 600 183 478 190 600 b 446 353 442 600 446 486 b 315 82 446 183 439 82 z m 221 765 l 326 765 l 496 908 l 496 917 l 358 917 l 221 774 z "},"œ":{"ha":956,"x_min":0,"x_max":0,"o":"m 314 82 b 183 351 189 82 183 183 b 318 600 183 476 189 600 b 433 525 385 600 418 569 b 418 340 421 475 418 403 b 433 163 418 276 421 211 b 314 82 418 111 383 82 z m 306 -12 b 490 65 406 -12 460 22 b 672 -12 522 18 569 -12 b 839 15 739 -12 804 1 l 835 107 b 682 79 797 94 739 79 b 547 189 599 79 563 111 l 900 404 b 903 457 903 421 903 439 b 671 693 903 613 839 693 b 492 621 578 693 528 664 b 314 693 456 667 403 693 b 64 336 94 693 64 535 b 306 -12 64 154 85 -12 z m 538 340 b 674 600 538 506 544 600 b 788 457 764 600 788 553 l 788 428 l 538 275 z "},"ŕ":{"ha":456,"x_min":0,"x_max":0,"o":"m 210 765 l 315 765 l 485 908 l 485 917 l 347 917 l 210 774 z m 82 0 l 201 0 l 201 493 l 296 554 b 396 586 329 576 358 586 b 444 582 414 586 433 585 l 449 683 b 399 688 435 686 415 688 b 282 647 360 688 321 675 l 194 583 l 188 681 l 82 681 z "},"ř":{"ha":456,"x_min":0,"x_max":0,"o":"m 210 764 l 319 764 l 456 911 l 456 919 l 356 919 l 264 833 l 172 919 l 71 919 l 71 911 z m 82 0 l 201 0 l 201 493 l 296 554 b 396 586 329 576 358 586 b 444 582 414 586 433 585 l 449 683 b 399 688 435 686 415 688 b 282 647 360 688 321 675 l 194 583 l 188 681 l 82 681 z "},"ŗ":{"ha":456,"x_min":0,"x_max":0,"o":"m 58 -269 l 133 -269 l 194 -101 l 194 -53 l 89 -53 z m 82 0 l 201 0 l 201 493 l 296 554 b 396 586 329 576 358 586 b 444 582 414 586 433 585 l 449 683 b 399 688 435 686 415 688 b 282 647 360 688 321 675 l 194 583 l 188 681 l 82 681 z "},"ś":{"ha":517,"x_min":0,"x_max":0,"o":"m 204 765 l 310 765 l 479 908 l 479 917 l 342 917 l 204 774 z m 247 -12 b 472 169 415 -12 472 76 b 368 346 472 236 442 294 l 211 451 b 158 532 169 479 157 504 b 268 599 160 578 197 599 b 432 572 321 599 383 588 l 435 667 b 263 693 386 681 326 693 b 53 524 106 693 53 614 b 146 356 53 457 81 400 l 310 246 b 364 157 349 219 365 192 b 247 82 363 108 322 82 b 54 114 190 82 107 97 l 51 18 b 247 -12 101 3 181 -12 z "},"ŝ":{"ha":517,"x_min":0,"x_max":0,"o":"m 65 765 l 167 765 l 258 851 l 350 765 l 450 765 l 450 774 l 314 921 l 204 921 l 65 774 z m 247 -12 b 472 169 415 -12 472 76 b 368 346 472 236 442 294 l 211 451 b 158 532 169 479 157 504 b 268 599 160 578 197 599 b 432 572 321 599 383 588 l 435 667 b 263 693 386 681 326 693 b 53 524 106 693 53 614 b 146 356 53 457 81 400 l 310 246 b 364 157 349 219 365 192 b 247 82 363 108 322 82 b 54 114 190 82 107 97 l 51 18 b 247 -12 101 3 181 -12 z "},"š":{"ha":517,"x_min":0,"x_max":0,"o":"m 204 764 l 314 764 l 450 911 l 450 919 l 350 919 l 258 833 l 167 919 l 65 919 l 65 911 z m 247 -12 b 472 169 415 -12 472 76 b 368 346 472 236 442 294 l 211 451 b 158 532 169 479 157 504 b 268 599 160 578 197 599 b 432 572 321 599 383 588 l 435 667 b 263 693 386 681 326 693 b 53 524 106 693 53 614 b 146 356 53 457 81 400 l 310 246 b 364 157 349 219 365 192 b 247 82 363 108 322 82 b 54 114 190 82 107 97 l 51 18 b 247 -12 101 3 181 -12 z "},"ş":{"ha":517,"x_min":0,"x_max":0,"o":"m 190 -261 b 288 -49 354 -246 406 -107 l 288 -10 b 472 169 424 3 472 83 b 368 346 472 236 442 294 l 211 451 b 158 532 169 479 157 504 b 268 599 160 578 197 599 b 432 572 321 599 383 588 l 435 667 b 263 693 386 681 326 693 b 53 524 106 693 53 614 b 146 356 53 457 81 400 l 310 246 b 364 157 349 219 365 192 b 247 82 363 108 322 82 b 54 114 190 82 107 97 l 51 18 b 203 -11 90 6 147 -6 l 203 -78 b 153 -200 314 -125 257 -192 z "},"ș":{"ha":517,"x_min":0,"x_max":0,"o":"m 164 -269 l 239 -269 l 300 -101 l 300 -53 l 194 -53 z m 247 -12 b 472 169 415 -12 472 76 b 368 346 472 236 442 294 l 211 451 b 158 532 169 479 157 504 b 268 599 160 578 197 599 b 432 572 321 599 383 588 l 435 667 b 263 693 386 681 326 693 b 53 524 106 693 53 614 b 146 356 53 457 81 400 l 310 246 b 364 157 349 219 365 192 b 247 82 363 108 322 82 b 54 114 190 82 107 97 l 51 18 b 247 -12 101 3 181 -12 z "},"ß":{"ha":750,"x_min":0,"x_max":0,"o":"m 479 -12 b 697 161 638 -12 697 72 b 604 340 697 233 669 285 l 468 450 b 414 532 422 486 414 508 b 556 613 414 593 469 613 l 660 613 l 660 681 b 386 949 660 829 594 949 b 82 681 194 949 82 849 l 82 0 l 201 0 l 201 682 b 397 854 201 789 269 854 b 567 703 524 854 567 785 l 538 703 b 308 532 393 703 308 647 b 397 361 308 469 332 419 l 536 251 b 589 164 574 224 589 200 b 475 82 589 108 543 82 b 311 110 422 82 363 93 l 306 14 b 479 -12 354 -3 418 -12 z "},"ť":{"ha":453,"x_min":0,"x_max":0,"o":"m 351 739 l 421 954 l 421 989 l 328 999 l 282 747 z m 285 -11 b 404 10 335 -11 379 0 l 400 97 b 310 83 374 90 340 83 b 201 182 243 83 201 113 l 201 590 l 376 590 l 381 681 l 200 681 l 200 847 l 82 847 l 82 179 b 285 -11 82 50 163 -11 z "},"ţ":{"ha":432,"x_min":0,"x_max":0,"o":"m 169 -269 l 244 -269 l 306 -101 l 306 -53 l 200 -53 z m 285 -11 b 404 10 335 -11 379 0 l 400 97 b 310 83 374 90 340 83 b 201 182 243 83 201 113 l 201 590 l 376 590 l 381 681 l 200 681 l 200 847 l 82 847 l 82 179 b 285 -11 82 50 163 -11 z "},"ț":{"ha":432,"x_min":0,"x_max":0,"o":"m 169 -269 l 244 -269 l 306 -101 l 306 -53 l 200 -53 z m 285 -11 b 404 10 335 -11 379 0 l 400 97 b 310 83 374 90 340 83 b 201 182 243 83 201 113 l 201 590 l 376 590 l 381 681 l 200 681 l 200 847 l 82 847 l 82 179 b 285 -11 82 50 163 -11 z "},"ŧ":{"ha":432,"x_min":0,"x_max":0,"o":"m 32 325 l 82 325 l 82 179 b 285 -11 82 50 163 -11 b 404 10 335 -11 379 0 l 400 97 b 310 83 374 90 340 83 b 201 182 243 83 201 113 l 201 325 l 376 325 l 376 410 l 201 410 l 201 590 l 376 590 l 381 681 l 200 681 l 200 847 l 82 847 l 82 410 l 32 410 z "},"ù":{"ha":654,"x_min":0,"x_max":0,"o":"m 260 -11 b 401 38 319 -11 361 10 l 460 78 l 468 0 l 572 0 l 572 681 l 454 681 l 454 171 l 385 125 b 288 88 353 103 325 88 b 201 171 232 88 201 121 l 201 681 l 82 681 l 82 165 b 260 -11 82 57 150 -11 z m 271 765 l 378 765 l 378 774 l 240 917 l 103 917 l 103 908 z "},"ú":{"ha":654,"x_min":0,"x_max":0,"o":"m 274 765 l 379 765 l 549 908 l 549 917 l 411 917 l 274 774 z m 260 -11 b 401 38 319 -11 361 10 l 460 78 l 468 0 l 572 0 l 572 681 l 454 681 l 454 171 l 385 125 b 288 88 353 103 325 88 b 201 171 232 88 201 121 l 201 681 l 82 681 l 82 165 b 260 -11 82 57 150 -11 z "},"û":{"ha":654,"x_min":0,"x_max":0,"o":"m 135 765 l 236 765 l 328 851 l 419 765 l 519 765 l 519 774 l 383 921 l 274 921 l 135 774 z m 260 -11 b 401 38 319 -11 361 10 l 460 78 l 468 0 l 572 0 l 572 681 l 454 681 l 454 171 l 385 125 b 288 88 353 103 325 88 b 201 171 232 88 201 121 l 201 681 l 82 681 l 82 165 b 260 -11 82 57 150 -11 z "},"ũ":{"ha":654,"x_min":0,"x_max":0,"o":"m 260 -11 b 401 38 319 -11 361 10 l 460 78 l 468 0 l 572 0 l 572 681 l 454 681 l 454 171 l 385 125 b 288 88 353 103 325 88 b 201 171 232 88 201 121 l 201 681 l 82 681 l 82 165 b 260 -11 82 57 150 -11 z m 411 760 b 533 860 468 760 511 801 l 485 910 l 476 910 b 410 849 464 876 446 849 b 253 915 350 849 331 915 b 132 828 192 915 160 875 l 178 776 l 186 776 b 253 828 203 807 222 828 b 411 760 307 828 332 760 z "},"ü":{"ha":654,"x_min":0,"x_max":0,"o":"m 151 776 l 257 776 l 257 893 l 151 893 z m 396 776 l 501 776 l 501 893 l 396 893 z m 260 -11 b 401 38 319 -11 361 10 l 460 78 l 468 0 l 572 0 l 572 681 l 454 681 l 454 171 l 385 125 b 288 88 353 103 325 88 b 201 171 232 88 201 121 l 201 681 l 82 681 l 82 165 b 260 -11 82 57 150 -11 z "},"ū":{"ha":654,"x_min":0,"x_max":0,"o":"m 260 -11 b 401 38 319 -11 361 10 l 460 78 l 468 0 l 572 0 l 572 681 l 454 681 l 454 171 l 385 125 b 288 88 353 103 325 88 b 201 171 232 88 201 121 l 201 681 l 82 681 l 82 165 b 260 -11 82 57 150 -11 z m 158 786 l 497 786 l 497 871 l 158 871 z "},"ŭ":{"ha":654,"x_min":0,"x_max":0,"o":"m 260 -11 b 401 38 319 -11 361 10 l 460 78 l 468 0 l 572 0 l 572 681 l 454 681 l 454 171 l 385 125 b 288 88 353 103 325 88 b 201 171 232 88 201 121 l 201 681 l 82 681 l 82 165 b 260 -11 82 57 150 -11 z m 326 757 b 507 910 433 757 493 813 l 431 910 b 329 842 422 864 381 842 b 225 910 271 842 232 865 l 147 910 b 326 757 161 813 224 757 z "},"ů":{"ha":654,"x_min":0,"x_max":0,"o":"m 326 800 b 263 864 289 800 263 826 b 326 929 263 901 289 929 b 392 864 364 929 392 901 b 326 800 392 826 364 800 z m 326 740 b 460 864 407 740 460 794 b 328 988 460 933 410 988 b 194 864 246 988 194 933 b 326 740 194 794 244 740 z m 260 -11 b 401 38 319 -11 361 10 l 460 78 l 468 0 l 572 0 l 572 681 l 454 681 l 454 171 l 385 125 b 288 88 353 103 325 88 b 201 171 232 88 201 121 l 201 681 l 82 681 l 82 165 b 260 -11 82 57 150 -11 z "},"ű":{"ha":654,"x_min":0,"x_max":0,"o":"m 260 -11 b 401 38 319 -11 361 10 l 460 78 l 468 0 l 572 0 l 572 681 l 454 681 l 454 171 l 385 125 b 288 88 353 103 325 88 b 201 171 232 88 201 121 l 201 681 l 82 681 l 82 165 b 260 -11 82 57 150 -11 z m 169 765 l 258 765 l 363 908 l 363 917 l 238 917 l 169 774 z m 394 765 l 483 765 l 588 908 l 588 917 l 463 917 l 394 774 z "},"ų":{"ha":654,"x_min":0,"x_max":0,"o":"m 260 -11 b 401 38 319 -11 361 10 l 460 78 l 468 0 l 485 0 b 388 -151 436 -36 388 -89 b 506 -256 388 -217 431 -256 b 589 -240 539 -256 569 -247 l 585 -171 b 522 -179 565 -175 543 -179 b 476 -135 493 -179 476 -165 b 572 0 476 -79 540 -25 l 572 681 l 454 681 l 454 171 l 385 125 b 288 88 353 103 325 88 b 201 171 232 88 201 121 l 201 681 l 82 681 l 82 165 b 260 -11 82 57 150 -11 z "},"ẁ":{"ha":915,"x_min":0,"x_max":0,"o":"m 268 -11 b 379 25 307 -11 342 -1 l 457 76 l 533 25 b 646 -11 565 1 603 -11 b 790 99 722 -11 778 26 b 881 681 813 214 842 375 l 754 681 b 678 131 722 392 696 215 b 631 88 672 103 657 88 b 578 106 614 88 594 93 l 515 146 l 515 681 l 397 681 l 397 144 l 336 106 b 286 88 317 93 304 88 b 235 131 257 88 240 103 b 160 681 218 226 196 381 l 36 681 b 124 99 71 392 100 218 b 268 -11 139 24 193 -11 z m 401 765 l 508 765 l 508 774 l 371 917 l 233 917 l 233 908 z "},"ẃ":{"ha":915,"x_min":0,"x_max":0,"o":"m 404 765 l 510 765 l 679 908 l 679 917 l 542 917 l 404 774 z m 268 -11 b 379 25 307 -11 342 -1 l 457 76 l 533 25 b 646 -11 565 1 603 -11 b 790 99 722 -11 778 26 b 881 681 813 214 842 375 l 754 681 b 678 131 722 392 696 215 b 631 88 672 103 657 88 b 578 106 614 88 594 93 l 515 146 l 515 681 l 397 681 l 397 144 l 336 106 b 286 88 317 93 304 88 b 235 131 257 88 240 103 b 160 681 218 226 196 381 l 36 681 b 124 99 71 392 100 218 b 268 -11 139 24 193 -11 z "},"ŵ":{"ha":915,"x_min":0,"x_max":0,"o":"m 265 765 l 367 765 l 458 851 l 550 765 l 650 765 l 650 774 l 514 921 l 404 921 l 265 774 z m 268 -11 b 379 25 307 -11 342 -1 l 457 76 l 533 25 b 646 -11 565 1 603 -11 b 790 99 722 -11 778 26 b 881 681 813 214 842 375 l 754 681 b 678 131 722 392 696 215 b 631 88 672 103 657 88 b 578 106 614 88 594 93 l 515 146 l 515 681 l 397 681 l 397 144 l 336 106 b 286 88 317 93 304 88 b 235 131 257 88 240 103 b 160 681 218 226 196 381 l 36 681 b 124 99 71 392 100 218 b 268 -11 139 24 193 -11 z "},"ẅ":{"ha":915,"x_min":0,"x_max":0,"o":"m 282 776 l 388 776 l 388 893 l 282 893 z m 526 776 l 632 776 l 632 893 l 526 893 z m 268 -11 b 379 25 307 -11 342 -1 l 457 76 l 533 25 b 646 -11 565 1 603 -11 b 790 99 722 -11 778 26 b 881 681 813 214 842 375 l 754 681 b 678 131 722 392 696 215 b 631 88 672 103 657 88 b 578 106 614 88 594 93 l 515 146 l 515 681 l 397 681 l 397 144 l 336 106 b 286 88 317 93 304 88 b 235 131 257 88 240 103 b 160 681 218 226 196 381 l 36 681 b 124 99 71 392 100 218 b 268 -11 139 24 193 -11 z "},"ỳ":{"ha":656,"x_min":0,"x_max":0,"o":"m 313 -285 b 574 -67 493 -285 574 -203 l 574 681 l 454 681 l 454 176 l 381 126 b 288 93 350 107 324 93 b 203 178 233 93 203 125 l 203 681 l 83 681 l 83 174 b 261 -6 83 65 151 -6 b 406 46 324 -6 367 18 l 454 78 l 454 -74 b 307 -192 454 -149 413 -192 b 151 -169 253 -192 189 -181 l 147 -262 b 313 -285 192 -275 251 -285 z m 271 765 l 378 765 l 378 774 l 240 917 l 103 917 l 103 908 z "},"ý":{"ha":656,"x_min":0,"x_max":0,"o":"m 313 -285 b 574 -67 493 -285 574 -203 l 574 681 l 454 681 l 454 176 l 381 126 b 288 93 350 107 324 93 b 203 178 233 93 203 125 l 203 681 l 83 681 l 83 174 b 261 -6 83 65 151 -6 b 406 46 324 -6 367 18 l 454 78 l 454 -74 b 307 -192 454 -149 413 -192 b 151 -169 253 -192 189 -181 l 147 -262 b 313 -285 192 -275 251 -285 z m 274 765 l 379 765 l 549 908 l 549 917 l 411 917 l 274 774 z "},"ŷ":{"ha":656,"x_min":0,"x_max":0,"o":"m 313 -285 b 574 -67 493 -285 574 -203 l 574 681 l 454 681 l 454 176 l 381 126 b 288 93 350 107 324 93 b 203 178 233 93 203 125 l 203 681 l 83 681 l 83 174 b 261 -6 83 65 151 -6 b 406 46 324 -6 367 18 l 454 78 l 454 -74 b 307 -192 454 -149 413 -192 b 151 -169 253 -192 189 -181 l 147 -262 b 313 -285 192 -275 251 -285 z m 135 765 l 236 765 l 328 851 l 419 765 l 519 765 l 519 774 l 383 921 l 274 921 l 135 774 z "},"ÿ":{"ha":656,"x_min":0,"x_max":0,"o":"m 313 -285 b 574 -67 493 -285 574 -203 l 574 681 l 454 681 l 454 176 l 381 126 b 288 93 350 107 324 93 b 203 178 233 93 203 125 l 203 681 l 83 681 l 83 174 b 261 -6 83 65 151 -6 b 406 46 324 -6 367 18 l 454 78 l 454 -74 b 307 -192 454 -149 413 -192 b 151 -169 253 -192 189 -181 l 147 -262 b 313 -285 192 -275 251 -285 z m 151 776 l 257 776 l 257 893 l 151 893 z m 396 776 l 501 776 l 501 893 l 396 893 z "},"ź":{"ha":536,"x_min":0,"x_max":0,"o":"m 238 765 l 343 765 l 513 908 l 513 917 l 375 917 l 238 774 z m 60 0 l 517 0 l 517 90 l 196 90 l 507 603 l 507 681 l 65 681 l 65 590 l 374 590 l 57 75 z "},"ž":{"ha":536,"x_min":0,"x_max":0,"o":"m 238 764 l 347 764 l 483 911 l 483 919 l 383 919 l 292 833 l 200 919 l 99 919 l 99 911 z m 60 0 l 517 0 l 517 90 l 196 90 l 507 603 l 507 681 l 65 681 l 65 590 l 374 590 l 57 75 z "},"ż":{"ha":536,"x_min":0,"x_max":0,"o":"m 60 0 l 517 0 l 517 90 l 196 90 l 507 603 l 507 681 l 65 681 l 65 590 l 374 590 l 57 75 z m 290 775 b 356 835 331 775 356 796 b 290 894 356 874 331 894 b 226 835 250 894 226 874 b 290 775 226 796 250 775 z "},"ŋ":{"ha":656,"x_min":0,"x_max":0,"o":"m 374 -285 b 574 -93 492 -285 574 -211 l 574 506 b 403 692 574 618 511 692 b 263 649 349 692 300 672 l 194 604 l 189 681 l 82 681 l 82 0 l 201 0 l 201 511 l 275 558 b 371 590 310 581 340 590 b 453 503 426 590 453 557 l 453 -100 b 358 -192 453 -158 418 -192 b 306 -185 340 -192 325 -189 l 301 -275 b 374 -285 322 -281 346 -285 z "},"ð":{"ha":617,"x_min":0,"x_max":0,"o":"m 144 681 l 250 758 l 311 675 l 186 585 b 60 351 99 519 60 442 b 308 -14 60 147 79 -14 b 556 351 542 -14 556 156 b 439 690 556 483 518 581 l 343 826 l 444 901 l 404 960 l 301 885 l 244 967 l 238 967 l 150 900 l 208 817 l 104 740 z m 310 81 b 175 343 179 81 175 211 b 256 513 175 413 199 471 l 365 593 b 440 343 429 506 440 424 b 310 81 440 213 439 81 z "},"þ":{"ha":638,"x_min":0,"x_max":0,"o":"m 82 -271 l 201 -271 l 201 0 l 307 0 b 574 360 528 0 574 143 b 394 692 574 589 522 692 b 263 650 343 692 300 675 l 199 608 l 199 931 l 82 931 z m 201 90 l 201 511 l 275 558 b 364 592 307 579 335 592 b 456 350 429 592 456 533 b 307 90 456 182 435 90 z "},"ſ":{"ha":396,"x_min":0,"x_max":0,"o":"m 82 0 l 201 0 l 201 742 b 311 854 201 815 229 854 b 413 842 342 854 382 849 l 418 932 b 285 949 389 939 338 949 b 82 742 150 949 82 871 l 82 681 l -3 681 l 3 590 l 82 590 z "},"ﬁ":{"ha":653,"x_min":0,"x_max":0,"o":"m 82 0 l 201 0 l 201 590 l 439 590 l 439 0 l 558 0 l 558 681 l 201 681 l 201 742 b 335 854 201 814 235 854 b 472 835 372 854 421 849 l 493 921 b 319 949 431 939 379 949 b 82 744 156 949 82 879 z "},"ﬂ":{"ha":719,"x_min":0,"x_max":0,"o":"m 626 -11 b 717 3 663 -11 694 -4 l 713 93 b 654 83 693 88 672 83 b 568 175 600 83 568 113 l 568 913 b 333 949 499 933 419 949 b 82 740 150 949 82 878 l 82 0 l 201 0 l 201 590 l 357 590 l 357 681 l 201 681 l 201 742 b 336 854 201 819 232 854 b 449 842 375 854 417 850 l 449 171 b 626 -11 449 51 514 -11 z "},"&":{"ha":786,"x_min":0,"x_max":0,"o":"m 375 -11 b 689 238 574 -11 689 72 b 649 382 689 303 671 344 l 782 465 l 782 556 l 772 556 l 436 339 l 436 264 l 464 264 l 556 319 b 582 231 572 294 582 267 b 385 93 582 133 504 93 b 185 263 239 93 185 150 b 261 419 185 332 204 383 l 483 554 l 483 651 l 458 651 l 254 528 b 204 667 222 563 204 610 b 431 839 204 803 301 839 b 588 828 479 839 539 833 l 590 929 b 403 943 538 938 461 943 b 89 671 213 943 89 867 b 164 468 89 582 114 524 b 68 256 108 433 68 365 b 375 -11 68 64 186 -11 z "},"`":{"ha":410,"x_min":0,"x_max":0,"o":"m 236 765 l 343 765 l 343 774 l 206 917 l 68 917 l 68 908 z "},"´":{"ha":339,"x_min":0,"x_max":0,"o":"m 31 765 l 136 765 l 306 908 l 306 917 l 168 917 l 31 774 z "},"ˆ":{"ha":476,"x_min":0,"x_max":0,"o":"m 46 765 l 147 765 l 239 851 l 331 765 l 431 765 l 431 774 l 294 921 l 185 921 l 46 774 z "},"ˇ":{"ha":476,"x_min":0,"x_max":0,"o":"m 185 764 l 294 764 l 431 911 l 431 919 l 331 919 l 239 833 l 147 919 l 46 919 l 46 911 z "},"":{"ha":219,"x_min":0,"x_max":0,"o":"m 46 -269 l 121 -269 l 182 -101 l 182 -53 l 76 -53 z "},"˜":{"ha":489,"x_min":0,"x_max":0,"o":"m 324 760 b 446 860 381 760 424 801 l 397 910 l 389 910 b 322 849 376 876 358 849 b 165 915 263 849 243 915 b 44 828 104 915 72 875 l 90 776 l 99 776 b 165 828 115 807 135 828 b 324 760 219 828 244 760 z "},"¨":{"ha":460,"x_min":0,"x_max":0,"o":"m 54 776 l 160 776 l 160 893 l 54 893 z m 299 776 l 404 776 l 404 893 l 299 893 z "},"¯":{"ha":381,"x_min":0,"x_max":0,"o":"m 21 786 l 360 786 l 360 871 l 21 871 z "},"˘":{"ha":443,"x_min":0,"x_max":0,"o":"m 221 757 b 401 910 328 757 388 813 l 325 910 b 224 842 317 864 275 842 b 119 910 165 842 126 865 l 42 910 b 221 757 56 813 118 757 z "},"˚":{"ha":326,"x_min":0,"x_max":0,"o":"m 165 800 b 101 864 128 800 101 826 b 165 929 101 901 128 929 b 231 864 203 929 231 901 b 165 800 231 826 203 800 z m 165 740 b 299 864 246 740 299 794 b 167 988 299 933 249 988 b 33 864 85 988 33 933 b 165 740 33 794 83 740 z "},"˝":{"ha":547,"x_min":0,"x_max":0,"o":"m 93 765 l 182 765 l 286 908 l 286 917 l 161 917 l 93 774 z m 318 765 l 407 765 l 511 908 l 511 917 l 386 917 l 318 774 z "},"˙":{"ha":189,"x_min":0,"x_max":0,"o":"m 93 775 b 158 835 133 775 158 796 b 93 894 158 874 133 894 b 29 835 53 894 29 874 b 93 775 29 796 53 775 z "},"¸":{"ha":333,"x_min":0,"x_max":0,"o":"m 111 -261 b 208 -49 275 -246 326 -107 l 208 0 l 124 0 l 124 -78 b 74 -200 235 -125 178 -192 z "},"˛":{"ha":319,"x_min":0,"x_max":0,"o":"m 167 -256 b 250 -240 200 -256 231 -247 l 246 -171 b 183 -179 226 -175 204 -179 b 138 -135 154 -179 138 -165 b 233 0 138 -79 201 -25 l 158 8 b 49 -151 106 -28 49 -85 b 167 -256 49 -217 92 -256 z "},",":{"ha":228,"x_min":0,"x_max":0,"o":"m 40 -161 l 117 -161 l 179 83 l 179 132 l 71 132 z "},";":{"ha":286,"x_min":0,"x_max":0,"o":"m 51 -161 l 128 -161 l 193 90 l 193 132 l 83 132 z m 76 547 l 204 547 l 204 681 l 76 681 z "},":":{"ha":285,"x_min":0,"x_max":0,"o":"m 78 0 l 206 0 l 206 133 l 78 133 z m 78 547 l 206 547 l 206 681 l 78 681 z "},".":{"ha":239,"x_min":0,"x_max":0,"o":"m 60 0 l 188 0 l 188 132 l 60 132 z "},"…":{"ha":874,"x_min":0,"x_max":0,"o":"m 53 0 l 181 0 l 181 132 l 53 132 z m 374 0 l 500 0 l 500 132 l 374 132 z m 693 0 l 821 0 l 821 132 l 693 132 z "},"-":{"ha":422,"x_min":0,"x_max":0,"o":"m 64 317 l 358 317 l 358 414 l 64 414 z "},"!":{"ha":286,"x_min":0,"x_max":0,"o":"m 72 0 l 214 0 l 214 132 l 72 132 z m 86 247 l 199 247 l 207 931 l 78 931 z "},"¡":{"ha":282,"x_min":0,"x_max":0,"o":"m 76 -129 l 206 -129 l 197 579 l 83 579 z m 69 678 l 211 678 l 211 801 l 69 801 z "},"?":{"ha":539,"x_min":0,"x_max":0,"o":"m 138 247 l 254 247 l 254 300 b 328 415 254 369 278 382 b 488 690 407 475 488 542 b 197 943 488 879 353 943 b 38 918 142 943 90 935 l 60 815 b 192 836 101 829 147 836 b 371 678 290 836 371 799 b 257 493 371 578 317 535 b 138 306 167 429 138 403 z m 126 0 l 268 0 l 268 132 l 126 132 z "},"¿":{"ha":540,"x_min":0,"x_max":0,"o":"m 333 -117 b 489 -90 388 -117 438 -108 l 465 14 b 336 -10 425 -1 378 -10 b 157 150 236 -10 157 32 b 269 335 157 251 213 294 b 389 522 360 399 389 425 l 389 581 l 272 581 l 272 528 b 200 413 272 458 250 447 b 39 140 121 354 39 286 b 333 -117 39 -53 183 -117 z m 260 696 l 400 696 l 400 828 l 260 828 z "},"‘":{"ha":233,"x_min":0,"x_max":0,"o":"m 46 638 l 154 638 l 192 931 l 115 931 l 46 688 z "},"’":{"ha":244,"x_min":0,"x_max":0,"o":"m 63 638 l 139 638 l 208 882 l 208 931 l 100 931 z "},"“":{"ha":447,"x_min":0,"x_max":0,"o":"m 46 638 l 154 638 l 192 931 l 115 931 l 46 688 z m 258 638 l 368 638 l 404 931 l 329 931 l 258 688 z "},"”":{"ha":458,"x_min":0,"x_max":0,"o":"m 63 638 l 139 638 l 208 882 l 208 931 l 100 931 z m 276 638 l 351 638 l 422 882 l 422 931 l 313 931 z "},"‚":{"ha":243,"x_min":0,"x_max":0,"o":"m 58 -161 l 133 -161 l 204 83 l 204 133 l 94 133 z "},"„":{"ha":457,"x_min":0,"x_max":0,"o":"m 58 -161 l 133 -161 l 204 83 l 204 133 l 94 133 z m 271 -161 l 347 -161 l 417 83 l 417 133 l 308 133 z "},"‹":{"ha":497,"x_min":0,"x_max":0,"o":"m 404 47 l 404 196 l 217 354 l 404 508 l 404 658 l 56 356 z "},"›":{"ha":499,"x_min":0,"x_max":0,"o":"m 71 47 l 419 354 l 71 658 l 71 508 l 258 353 l 71 196 z "},"«":{"ha":803,"x_min":0,"x_max":0,"o":"m 394 54 l 394 200 l 218 361 l 394 518 l 394 664 l 56 361 z m 714 53 l 714 200 l 532 361 l 714 518 l 714 665 l 371 361 z "},"»":{"ha":801,"x_min":0,"x_max":0,"o":"m 89 53 l 432 361 l 89 665 l 89 518 l 271 361 l 89 200 z m 408 54 l 747 361 l 408 664 l 408 518 l 583 361 l 408 200 z "},"/":{"ha":593,"x_min":0,"x_max":0,"o":"m 60 -111 l 176 -111 l 549 921 l 549 931 l 433 931 l 60 -101 z "},"|":{"ha":326,"x_min":0,"x_max":0,"o":"m 111 -275 l 215 -275 l 215 1000 l 111 1000 z "},"–":{"ha":610,"x_min":0,"x_max":0,"o":"m 64 317 l 547 317 l 547 414 l 64 414 z "},"—":{"ha":967,"x_min":0,"x_max":0,"o":"m 64 317 l 903 317 l 903 414 l 64 414 z "},"•":{"ha":467,"x_min":0,"x_max":0,"o":"m 178 257 l 275 257 b 365 347 325 257 365 297 l 365 444 b 275 535 365 494 325 535 l 178 535 b 88 444 128 535 88 494 l 88 347 b 178 257 88 297 128 257 z "},"·":{"ha":279,"x_min":0,"x_max":0,"o":"m 139 306 b 204 365 179 306 204 326 b 139 426 204 404 179 426 b 75 365 99 426 75 404 b 139 306 75 326 99 306 z "},"(":{"ha":421,"x_min":0,"x_max":0,"o":"m 331 -271 l 381 -187 b 188 364 236 -122 188 104 b 376 911 188 624 236 838 l 336 999 b 71 371 140 919 71 651 b 331 -271 71 97 136 -196 z "},")":{"ha":419,"x_min":0,"x_max":0,"o":"m 89 -271 b 349 371 283 -196 349 97 b 83 999 349 651 279 919 l 43 911 b 232 364 183 838 232 624 b 39 -187 232 104 183 -122 b 89 -271 42 -192 85 -265 z "},"[":{"ha":354,"x_min":0,"x_max":0,"o":"m 82 -271 l 297 -271 l 297 -172 l 196 -172 l 196 832 l 297 832 l 297 931 l 82 931 z "},"]":{"ha":354,"x_min":0,"x_max":0,"o":"m 56 -271 l 271 -271 l 271 931 l 56 931 l 56 832 l 157 832 l 157 -172 l 56 -172 z "},"{":{"ha":417,"x_min":0,"x_max":0,"o":"m 268 -271 l 372 -271 l 372 -172 l 297 -172 b 267 -143 278 -172 267 -160 l 267 208 b 174 303 267 264 226 303 l 153 303 l 153 364 l 174 364 b 267 458 226 364 267 403 l 267 801 b 297 832 267 819 278 832 l 372 832 l 372 931 l 268 931 b 153 817 199 931 153 882 l 153 483 b 111 443 153 456 139 443 l 56 443 l 56 222 l 113 222 b 153 183 139 222 153 206 l 153 -158 b 268 -271 153 -226 199 -271 z "},"}":{"ha":428,"x_min":0,"x_max":0,"o":"m 56 -271 l 163 -271 b 275 -165 229 -271 275 -231 l 275 183 b 315 222 275 206 289 222 l 372 222 l 372 443 l 317 443 b 275 483 289 443 275 456 l 275 824 b 163 931 275 885 229 931 l 56 931 l 56 832 l 135 832 b 161 808 150 832 161 822 l 161 458 b 254 364 161 403 201 364 l 275 364 l 275 303 l 254 303 b 161 208 201 303 161 264 l 161 -150 b 135 -172 161 -164 150 -172 l 56 -172 z "},"*":{"ha":553,"x_min":0,"x_max":0,"o":"m 192 560 l 276 700 l 363 560 l 431 621 l 318 731 l 478 767 l 449 851 l 303 782 l 321 946 l 233 946 l 251 782 l 104 851 l 76 767 l 236 731 l 125 621 z "},"†":{"ha":710,"x_min":0,"x_max":0,"o":"m 326 -187 l 385 -187 l 415 232 l 415 482 l 400 560 l 475 543 l 636 551 l 639 642 l 475 650 l 400 633 l 415 713 l 407 940 l 304 940 l 296 713 l 311 633 l 236 650 l 71 642 l 74 551 l 236 543 l 311 560 l 296 482 l 296 232 z "},"‡":{"ha":710,"x_min":0,"x_max":0,"o":"m 326 -187 l 385 -187 l 415 225 l 400 303 l 475 286 l 635 294 l 636 385 l 475 393 l 400 376 l 415 453 l 415 518 l 400 594 l 475 578 l 636 586 l 639 676 l 475 685 l 400 668 l 415 747 l 407 940 l 304 940 l 296 747 l 311 668 l 236 685 l 71 676 l 74 586 l 236 578 l 311 594 l 296 518 l 296 453 l 311 376 l 236 393 l 74 385 l 75 294 l 236 286 l 311 303 l 296 225 z "},"§":{"ha":690,"x_min":0,"x_max":0,"o":"m 326 -285 b 625 -68 496 -285 625 -229 b 553 88 625 -12 608 35 b 625 254 599 126 625 172 b 468 496 625 331 601 403 l 275 629 b 190 739 215 668 190 700 b 365 838 190 810 274 838 b 579 810 428 838 517 824 l 583 917 b 364 942 538 928 443 942 b 72 735 215 942 72 892 b 164 567 72 663 103 617 b 72 401 104 526 72 481 b 192 200 72 326 101 264 l 406 49 b 506 -78 468 6 506 -26 b 324 -179 506 -146 440 -179 b 68 -146 239 -179 142 -162 l 64 -251 b 326 -285 128 -268 232 -285 z m 468 156 l 263 296 b 183 408 213 331 183 363 b 251 496 183 451 207 478 l 407 390 b 514 243 482 339 514 297 b 468 156 514 204 499 175 z "},"¶":{"ha":821,"x_min":0,"x_max":0,"o":"m 378 -187 l 494 -187 l 494 838 l 607 838 l 607 -187 l 724 -187 l 724 838 l 804 838 l 804 931 l 269 931 b 69 722 154 931 69 876 l 69 596 b 271 393 69 443 156 393 b 378 404 310 393 351 399 z m 300 489 b 183 596 219 489 183 522 l 183 733 b 278 838 183 799 217 838 l 378 838 l 378 497 b 300 489 353 493 325 489 z "},"^":{"ha":686,"x_min":0,"x_max":0,"o":"m 58 461 l 183 461 l 342 814 l 503 461 l 628 461 l 390 931 l 292 931 z "},"~":{"ha":740,"x_min":0,"x_max":0,"o":"m 496 276 b 675 353 574 276 632 306 l 639 435 b 501 381 588 397 554 381 b 246 454 424 381 324 454 b 56 375 171 454 110 428 l 99 296 b 247 347 133 325 188 347 b 496 276 328 347 404 276 z "},"¦":{"ha":292,"x_min":0,"x_max":0,"o":"m 96 -271 l 201 -271 l 201 269 l 96 269 z m 96 465 l 201 465 l 201 1000 l 96 1000 z "},"\\":{"ha":588,"x_min":0,"x_max":0,"o":"m 411 -111 l 526 -111 l 526 -103 l 153 931 l 39 931 l 39 922 z "},"_":{"ha":522,"x_min":0,"x_max":0,"o":"m -19 -167 l 542 -167 l 542 -69 l -19 -69 z "},"'":{"ha":239,"x_min":0,"x_max":0,"o":"m 85 638 l 165 638 l 188 931 l 69 931 z "},"\"":{"ha":458,"x_min":0,"x_max":0,"o":"m 85 638 l 165 638 l 188 931 l 69 931 z m 299 638 l 379 638 l 401 931 l 283 931 z "},"@":{"ha":1103,"x_min":0,"x_max":0,"o":"m 544 -243 b 768 -224 635 -243 722 -233 l 764 -133 b 544 -150 718 -140 644 -150 b 188 379 263 -150 188 -3 b 556 835 188 719 288 835 b 917 382 824 835 915 722 b 807 92 917 214 896 94 l 785 90 b 788 274 785 111 788 185 b 781 521 788 364 786 447 b 542 693 774 626 711 693 b 376 672 478 693 415 682 l 381 582 b 529 601 421 592 475 601 b 667 507 631 601 667 569 l 426 358 b 308 181 347 306 308 254 l 308 157 b 501 -6 308 63 381 -6 b 781 -1 606 -6 781 -1 b 1031 382 935 1 1031 74 b 556 929 1031 783 897 929 b 72 379 219 929 72 771 b 544 -243 72 -76 193 -243 z m 522 85 b 421 167 451 85 421 124 l 421 189 b 481 283 421 226 438 257 l 671 400 b 674 254 671 400 674 319 b 671 89 674 165 671 90 b 522 85 671 89 583 85 z "},"©":{"ha":814,"x_min":0,"x_max":0,"o":"m 406 142 b 514 161 449 142 494 153 l 511 226 b 422 211 492 218 453 211 b 338 342 351 211 338 251 b 419 478 338 433 351 478 b 504 469 449 478 481 475 l 507 533 b 408 546 482 539 442 546 b 258 336 281 546 258 451 b 406 142 258 238 275 142 z m 406 63 b 139 342 246 63 139 175 b 407 621 139 508 246 621 b 675 343 568 621 675 507 b 406 63 675 178 567 63 z m 403 -12 b 753 342 608 -12 753 143 b 406 696 753 540 611 696 b 60 340 204 696 60 546 b 403 -12 60 139 199 -12 z "},"®":{"ha":549,"x_min":0,"x_max":0,"o":"m 196 593 l 232 593 l 232 647 l 275 672 l 335 593 l 381 593 l 306 692 l 333 708 b 372 782 361 726 372 751 b 290 865 372 835 338 865 l 196 865 z m 276 501 b 496 724 400 501 496 596 b 278 947 496 850 403 947 b 58 724 153 947 58 851 b 276 501 58 596 151 501 z m 232 686 l 232 829 l 290 829 b 336 781 310 829 336 817 b 314 736 336 767 332 747 z m 276 539 b 97 722 174 539 97 617 b 278 908 97 829 175 908 b 457 724 381 908 457 828 b 276 539 457 617 379 539 z "},"™":{"ha":933,"x_min":0,"x_max":0,"o":"m 385 479 l 464 479 l 492 776 l 593 479 l 654 479 l 756 776 l 781 479 l 863 479 l 810 931 l 735 931 l 624 604 l 513 931 l 438 931 z m 183 479 l 261 479 l 261 863 l 374 863 l 374 931 l 69 931 l 69 863 l 183 863 z "},"℗":{"ha":814,"x_min":0,"x_max":0,"o":"m 406 63 b 339 71 386 63 357 65 l 339 154 l 403 154 b 567 346 535 154 567 226 b 458 535 567 465 535 535 b 379 508 429 535 404 525 l 336 481 l 333 528 l 271 528 l 271 96 b 139 340 188 140 139 229 b 407 621 139 508 246 621 b 675 343 568 621 675 507 b 406 63 675 178 567 63 z m 403 -12 b 753 342 608 -12 753 143 b 406 696 753 540 611 696 b 60 340 204 696 60 546 b 403 -12 60 139 199 -12 z m 339 206 l 339 426 l 388 456 b 442 478 408 469 424 478 b 499 342 485 478 499 428 b 403 206 499 243 483 206 z "},"¤":{"ha":788,"x_min":0,"x_max":0,"o":"m 0 515 l 90 515 l 90 465 b 92 403 90 443 90 422 l 0 403 l 0 315 l 100 315 b 464 -11 136 67 269 -11 b 754 99 590 -11 675 26 l 682 172 b 472 97 625 119 556 97 b 224 315 351 97 257 140 l 588 315 l 588 403 l 214 403 b 213 465 213 422 213 443 l 213 515 l 588 515 l 588 603 l 221 603 b 479 835 249 782 339 835 b 665 782 549 835 615 821 l 732 863 b 471 942 668 917 581 942 b 97 603 251 942 128 850 l 0 603 z "},"€":{"ha":788,"x_min":0,"x_max":0,"o":"m 0 515 l 90 515 l 90 465 b 92 403 90 443 90 422 l 0 403 l 0 315 l 100 315 b 464 -11 136 67 269 -11 b 754 99 590 -11 675 26 l 682 172 b 472 97 625 119 556 97 b 224 315 351 97 257 140 l 588 315 l 588 403 l 214 403 b 213 465 213 422 213 443 l 213 515 l 588 515 l 588 603 l 221 603 b 479 835 249 782 339 835 b 665 782 549 835 615 821 l 732 863 b 471 942 668 917 581 942 b 97 603 251 942 128 850 l 0 603 z "},"$":{"ha":517,"x_min":0,"x_max":0,"o":"m 229 -186 l 294 -186 l 294 -10 b 472 169 426 6 472 85 b 368 346 472 236 442 294 l 211 451 b 158 532 169 479 157 504 b 268 599 160 578 197 599 b 432 572 321 599 383 588 l 435 667 b 294 692 394 678 346 689 l 294 867 l 229 867 l 229 692 b 53 524 97 681 53 607 b 146 356 53 457 81 400 l 310 246 b 364 157 349 219 365 192 b 247 82 363 108 322 82 b 54 114 190 82 107 97 l 51 18 b 229 -12 97 4 167 -10 z "},"¢":{"ha":528,"x_min":0,"x_max":0,"o":"m 271 -186 l 336 -186 l 336 -12 b 486 15 399 -10 449 1 l 485 110 b 332 82 446 94 386 82 b 183 338 194 82 183 164 b 335 600 183 518 207 600 b 472 582 375 600 431 592 l 475 674 b 336 693 433 683 385 692 l 336 867 l 271 867 l 271 690 b 64 325 86 668 64 517 b 271 -10 64 151 82 11 z "},"£":{"ha":657,"x_min":0,"x_max":0,"o":"m 10 0 l 640 0 l 640 94 l 190 94 l 190 96 b 267 224 231 113 267 160 l 267 413 l 496 413 l 499 507 l 267 507 l 267 721 b 390 847 267 806 321 847 b 515 715 468 847 511 790 l 524 715 l 614 769 b 386 940 599 879 508 940 b 149 719 251 940 149 865 l 149 507 l 71 507 l 71 438 l 149 417 l 149 210 b 10 88 149 135 79 88 z "},"ƒ":{"ha":588,"x_min":0,"x_max":0,"o":"m -32 -285 b 199 -92 89 -285 172 -221 l 346 590 l 536 590 l 536 681 l 363 681 l 379 754 b 513 853 392 810 428 853 b 614 836 543 853 581 847 l 633 928 b 501 949 596 939 550 949 b 261 756 360 949 286 876 l 244 681 l 101 681 l 101 590 l 226 590 l 81 -90 b -36 -189 67 -149 28 -189 b -103 -178 -56 -189 -83 -185 l -121 -269 b -32 -285 -96 -279 -64 -285 z "},"¥":{"ha":743,"x_min":0,"x_max":0,"o":"m 315 0 l 426 0 l 426 101 l 632 101 l 632 156 l 426 156 l 426 229 l 632 229 l 632 282 l 426 282 l 426 376 b 679 715 631 389 679 507 l 679 931 l 557 931 l 557 717 b 374 479 557 551 528 479 b 188 717 219 479 188 551 l 188 931 l 64 931 l 64 717 b 315 376 64 507 121 388 l 315 282 l 111 282 l 111 229 l 315 229 l 315 156 l 111 156 l 111 101 l 315 101 z "},"ª":{"ha":451,"x_min":0,"x_max":0,"o":"m 192 497 l 371 497 b 376 674 371 497 376 588 b 371 839 376 750 375 800 b 215 944 365 893 325 944 b 108 931 176 944 135 938 l 108 865 b 208 879 135 872 174 879 b 290 826 256 879 289 867 l 142 732 b 64 617 89 697 64 661 l 64 601 b 192 497 64 533 110 497 z m 197 561 b 142 607 158 561 142 585 l 142 619 b 182 682 142 649 160 668 l 294 751 b 296 660 294 751 296 718 b 294 561 296 601 294 561 z m 75 379 l 371 379 l 371 440 l 75 440 z "},"º":{"ha":469,"x_min":0,"x_max":0,"o":"m 86 379 l 382 379 l 382 440 l 86 440 z m 233 557 b 156 719 156 557 156 629 b 233 879 156 807 156 879 b 311 719 311 879 311 807 b 233 557 311 629 311 557 z m 233 490 b 394 722 378 490 394 592 b 235 944 394 846 379 944 b 72 717 92 944 72 846 b 233 490 72 592 89 490 z "},"#":{"ha":831,"x_min":0,"x_max":0,"o":"m 335 0 l 442 0 l 529 199 l 696 199 l 696 279 l 564 279 l 628 422 l 781 422 l 781 504 l 664 504 l 743 682 l 636 682 l 557 504 l 410 504 l 488 682 l 383 682 l 304 504 l 131 504 l 131 422 l 268 422 l 204 279 l 46 279 l 46 199 l 168 199 l 81 0 l 188 0 l 275 199 l 422 199 z m 374 422 l 521 422 l 457 279 l 310 279 z "},"¹":{"ha":293,"x_min":0,"x_max":0,"o":"m 132 450 l 224 450 l 224 931 l 174 931 b 19 913 140 931 57 921 l 26 843 b 132 853 63 849 107 853 z "},"²":{"ha":406,"x_min":0,"x_max":0,"o":"m 42 450 l 360 450 l 360 524 l 158 524 l 300 708 b 344 825 332 751 344 782 b 188 936 344 900 288 936 b 57 924 133 936 92 929 l 60 849 b 181 861 104 858 140 861 b 253 818 229 861 253 844 b 226 760 253 801 244 785 l 42 510 z "},"³":{"ha":408,"x_min":0,"x_max":0,"o":"m 183 299 b 358 519 299 299 358 350 b 232 722 358 663 325 722 b 211 722 231 722 217 722 l 340 871 l 340 931 l 33 931 l 33 856 l 224 856 l 100 711 l 100 653 l 192 653 b 267 519 254 653 267 610 b 178 375 267 408 236 375 b 40 392 126 375 75 385 l 38 317 b 183 299 69 308 124 299 z "}," ":{"ha":275,"x_min":0,"x_max":0,"o":""},"⁄":{"ha":667,"x_min":0,"x_max":0,"o":"m 0 0 l 103 0 l 671 921 l 671 929 l 568 929 l 0 8 z "},"¼":{"ha":956,"x_min":0,"x_max":0,"o":"m 764 0 l 856 0 l 856 140 l 906 140 l 906 217 l 856 217 l 856 421 l 806 421 l 764 353 l 764 217 l 614 217 l 614 254 b 635 322 614 278 619 300 l 835 610 l 835 621 l 743 621 l 563 365 b 524 239 535 326 524 290 l 524 140 l 764 140 z m 132 450 l 224 450 l 224 931 l 174 931 b 19 913 140 931 57 921 l 26 843 b 132 853 63 849 107 853 z m 88 0 l 188 0 l 757 924 l 757 931 l 656 931 l 88 8 z "},"½":{"ha":943,"x_min":0,"x_max":0,"o":"m 579 0 l 899 0 l 899 75 l 696 75 l 838 260 b 882 376 869 303 882 333 b 726 488 882 451 826 488 b 594 474 671 488 629 481 l 599 400 b 718 413 642 408 678 413 b 790 369 767 413 790 394 b 764 311 790 351 783 336 l 579 60 z m 132 450 l 224 450 l 224 931 l 174 931 b 19 913 140 931 57 921 l 26 843 b 132 853 63 849 107 853 z m 88 0 l 188 0 l 757 924 l 757 931 l 656 931 l 88 8 z "},"¾":{"ha":1101,"x_min":0,"x_max":0,"o":"m 910 0 l 1001 0 l 1001 140 l 1051 140 l 1051 217 l 1001 217 l 1001 421 l 951 421 l 910 353 l 910 217 l 760 217 l 760 254 b 781 322 760 278 765 300 l 981 610 l 981 621 l 889 621 l 708 365 b 671 239 681 326 671 290 l 671 140 l 910 140 z m 182 299 b 360 519 297 299 360 350 b 236 722 360 663 324 722 l 213 722 l 342 871 l 342 931 l 38 931 l 38 856 l 225 856 l 101 710 l 101 653 l 193 653 b 268 519 256 653 268 610 b 175 375 268 406 235 375 b 40 392 128 375 76 383 l 33 317 b 182 299 67 308 122 299 z m 238 0 l 338 0 l 907 924 l 907 931 l 806 931 l 238 8 z "},"%":{"ha":1083,"x_min":0,"x_max":0,"o":"m 210 0 l 313 0 l 876 914 l 876 922 l 772 922 l 210 8 z m 261 535 b 171 690 186 535 171 599 b 261 843 171 781 186 843 b 350 690 336 843 350 781 b 261 535 350 599 335 535 z m 261 444 b 454 690 419 444 454 554 b 261 935 454 825 419 935 b 67 690 103 935 67 825 b 261 444 67 554 103 444 z m 824 79 b 733 233 749 79 733 143 b 824 388 733 325 749 388 b 914 233 899 388 914 325 b 824 79 914 143 899 79 z m 824 -11 b 1017 233 982 -11 1017 99 b 824 478 1017 369 982 478 b 629 233 665 478 629 369 b 824 -11 629 99 665 -11 z "},"‰":{"ha":1553,"x_min":0,"x_max":0,"o":"m 210 0 l 313 0 l 876 914 l 876 922 l 772 922 l 210 8 z m 261 535 b 171 690 186 535 171 599 b 261 843 171 781 186 843 b 350 690 336 843 350 781 b 261 535 350 599 335 535 z m 261 444 b 454 690 419 444 454 554 b 261 935 454 825 419 935 b 67 690 103 935 67 825 b 261 444 67 554 103 444 z m 824 79 b 735 233 749 79 735 143 b 824 388 735 325 749 388 b 914 233 899 388 914 325 b 824 79 914 143 899 79 z m 824 -11 b 1018 233 982 -11 1018 99 b 824 478 1018 369 982 478 b 629 233 665 478 629 369 b 824 -11 629 99 665 -11 z m 1293 79 b 1203 233 1218 79 1203 143 b 1293 388 1203 325 1218 388 b 1383 233 1368 388 1383 325 b 1293 79 1383 143 1368 79 z m 1293 -11 b 1486 233 1451 -11 1486 99 b 1293 478 1486 369 1451 478 b 1099 233 1133 478 1099 369 b 1293 -11 1099 99 1133 -11 z "},"+":{"ha":639,"x_min":0,"x_max":0,"o":"m 260 117 l 365 117 l 365 318 l 565 318 l 565 411 l 365 411 l 365 615 l 260 615 l 260 411 l 61 411 l 61 318 l 260 318 z "},"−":{"ha":561,"x_min":0,"x_max":0,"o":"m 94 317 l 467 317 l 467 414 l 94 414 z "},"±":{"ha":667,"x_min":0,"x_max":0,"o":"m 288 224 l 388 224 l 388 404 l 589 404 l 589 500 l 388 500 l 388 681 l 288 681 l 288 500 l 83 500 l 83 404 l 288 404 z m 79 0 l 586 0 l 586 97 l 79 97 z "},"×":{"ha":599,"x_min":0,"x_max":0,"o":"m 140 129 l 299 288 l 460 129 l 529 204 l 371 363 l 529 521 l 458 597 l 299 440 l 142 597 l 69 521 l 229 363 l 68 206 z "},"÷":{"ha":610,"x_min":0,"x_max":0,"o":"m 239 0 l 368 0 l 368 133 l 239 133 z m 64 297 l 547 297 l 547 393 l 64 393 z m 239 547 l 368 547 l 368 681 l 239 681 z "},"=":{"ha":607,"x_min":0,"x_max":0,"o":"m 82 186 l 525 186 l 525 282 l 82 282 z m 82 407 l 525 407 l 525 503 l 82 503 z "},"≠":{"ha":607,"x_min":0,"x_max":0,"o":"m 82 407 l 281 407 l 225 282 l 82 282 l 82 186 l 182 186 l 100 0 l 207 0 l 289 186 l 525 186 l 525 282 l 331 282 l 386 407 l 525 407 l 525 503 l 429 503 l 508 682 l 403 682 l 322 503 l 82 503 z "},"≈":{"ha":713,"x_min":0,"x_max":0,"o":"m 488 139 b 667 215 565 139 624 168 l 631 296 b 493 242 579 258 546 242 b 238 315 415 242 315 315 b 46 238 163 315 100 290 l 89 158 b 239 210 124 188 179 210 b 488 139 318 210 396 139 z m 488 413 b 667 489 565 413 624 442 l 631 569 b 493 515 579 532 546 515 b 238 589 415 515 315 589 b 46 511 163 589 100 564 l 89 432 b 239 483 124 461 179 483 b 488 413 318 483 396 413 z "},"<":{"ha":558,"x_min":0,"x_max":0,"o":"m 475 54 l 475 194 l 201 358 l 475 525 l 475 665 l 56 389 l 56 329 z "},">":{"ha":558,"x_min":0,"x_max":0,"o":"m 83 54 l 501 329 l 501 389 l 83 665 l 83 524 l 357 357 l 83 193 z "},"≤":{"ha":1029,"x_min":0,"x_max":0,"o":"m 474 61 l 474 194 l 200 367 l 474 539 l 474 672 l 63 401 l 63 332 z m 369 314 l 944 314 l 944 419 l 369 419 l 294 367 z "},"≥":{"ha":1029,"x_min":0,"x_max":0,"o":"m 554 61 l 967 332 l 967 401 l 554 672 l 554 539 l 828 367 l 554 194 z m 85 314 l 660 314 l 735 367 l 660 419 l 85 419 z "},"¬":{"ha":701,"x_min":0,"x_max":0,"o":"m 503 176 l 619 176 l 619 414 l 94 414 l 94 319 l 503 319 z "},"­":{"ha":438,"x_min":0,"x_max":0,"o":"m 64 317 l 358 317 l 358 414 l 64 414 z "},"∆":{"ha":907,"x_min":0,"x_max":0,"o":"m 19 0 l 886 0 l 503 931 l 397 931 z m 167 96 l 449 792 l 732 96 z "},"Ω":{"ha":1026,"x_min":0,"x_max":0,"o":"m 82 0 l 417 0 l 417 110 b 204 478 283 196 204 310 b 513 839 204 694 335 839 b 818 482 692 839 818 690 b 610 110 818 313 738 192 l 610 0 l 943 0 l 943 106 l 725 106 b 938 501 849 189 938 321 b 518 943 938 765 757 943 b 89 488 265 943 89 744 b 297 106 89 315 175 188 l 82 106 z "},"π":{"ha":906,"x_min":0,"x_max":0,"o":"m 739 -14 b 832 3 769 -14 804 -8 l 828 90 b 768 82 810 83 785 82 b 671 185 707 82 671 108 l 671 590 l 828 590 l 828 681 l 40 681 l 40 590 l 194 590 l 194 0 l 304 0 l 304 590 l 560 590 l 560 163 b 739 -14 560 46 632 -14 z "},"°":{"ha":374,"x_min":0,"x_max":0,"o":"m 169 665 b 308 804 249 665 308 726 b 169 946 308 882 249 946 b 29 804 90 946 29 882 b 169 665 29 726 90 665 z m 169 719 b 85 804 122 719 85 758 b 169 890 85 851 122 890 b 254 804 217 890 254 851 b 169 719 254 758 217 719 z "},"∞":{"ha":1326,"x_min":0,"x_max":0,"o":"m 303 138 b 661 304 435 138 535 213 b 1010 138 793 206 889 138 b 1265 385 1167 138 1265 251 b 1021 619 1265 515 1172 619 b 665 454 892 619 785 544 b 317 619 535 557 432 619 b 60 372 164 619 60 511 b 303 138 60 246 146 138 z m 313 249 b 172 375 222 249 172 304 b 315 508 172 450 231 508 b 575 379 400 508 482 450 b 313 249 432 275 371 249 z m 1013 249 b 751 382 931 249 850 310 b 1014 508 857 460 936 508 b 1154 381 1099 508 1154 450 b 1013 249 1154 313 1097 249 z "},"∂":{"ha":615,"x_min":0,"x_max":0,"o":"m 308 -14 b 556 332 538 -14 556 156 b 439 690 556 476 528 567 l 265 936 l 258 936 l 172 869 l 311 675 l 186 585 b 60 351 99 519 60 442 b 308 -14 60 156 79 -14 z m 310 81 b 175 343 179 81 175 211 b 256 513 175 413 199 471 l 365 593 b 440 343 429 506 440 424 b 310 81 440 213 439 81 z "},"∫":{"ha":407,"x_min":0,"x_max":0,"o":"m -6 -285 b 201 -81 132 -285 201 -210 l 201 742 b 313 854 201 815 229 854 b 414 842 342 854 385 849 l 418 932 b 289 949 389 939 336 949 b 82 744 150 949 82 874 l 82 -78 b -29 -190 82 -151 54 -190 b -131 -178 -60 -190 -101 -185 l -135 -268 b -6 -285 -106 -275 -54 -285 z "},"√":{"ha":854,"x_min":0,"x_max":0,"o":"m 346 0 l 486 0 l 774 931 l 647 931 l 461 294 b 418 139 444 242 431 189 l 417 139 b 365 304 400 196 385 247 l 240 681 l 10 681 l 10 590 l 144 590 z "},"∑":{"ha":769,"x_min":0,"x_max":0,"o":"m 43 0 l 711 0 l 711 106 l 204 106 l 572 469 l 229 825 l 690 825 l 690 931 l 64 931 l 64 836 l 418 469 l 43 97 z "},"∏":{"ha":1089,"x_min":0,"x_max":0,"o":"m 214 0 l 325 0 l 325 825 l 756 825 l 756 0 l 865 0 l 865 825 l 1017 825 l 1017 931 l 61 931 l 61 825 l 214 825 z "},"◊":{"ha":851,"x_min":0,"x_max":0,"o":"m 393 -12 l 478 -12 l 818 458 l 469 947 l 388 947 l 44 465 z m 436 118 l 175 468 l 425 814 l 690 456 z "},"":{"ha":754,"x_min":0,"x_max":0,"o":"m 381 229 b 667 517 644 229 667 263 b 381 803 667 771 644 803 b 93 517 118 803 93 771 b 381 229 93 263 118 229 z m 229 314 b 285 319 243 315 264 318 b 301 513 294 383 301 450 b 285 689 301 571 297 629 b 193 757 239 699 193 719 b 207 772 193 765 197 772 b 215 756 213 772 213 763 b 339 699 225 706 299 699 b 482 719 396 699 429 704 b 551 686 504 714 533 700 b 561 729 558 701 560 714 l 569 728 b 531 551 561 663 551 621 l 519 556 b 528 586 524 567 528 576 b 400 688 528 639 450 688 b 385 535 393 639 386 583 b 485 547 440 535 461 538 b 488 594 485 557 486 578 l 499 594 b 497 517 497 567 497 544 b 501 438 497 488 497 461 l 493 436 b 483 501 488 451 485 486 b 385 514 458 511 419 514 b 400 319 385 454 392 381 l 458 314 l 458 301 b 340 308 426 307 397 308 b 231 301 308 308 275 307 z "},"µ":{"ha":654,"x_min":0,"x_max":0,"o":"m 82 -271 l 201 -271 l 201 21 b 282 -7 219 4 246 -7 b 401 38 329 -7 367 14 l 460 78 l 467 0 l 572 0 l 572 681 l 454 681 l 454 171 l 383 125 b 289 88 351 103 325 88 b 201 168 235 88 201 119 l 201 681 l 82 681 z "},"ℓ":{"ha":578,"x_min":0,"x_max":0,"o":"m 301 -11 b 482 75 393 -11 454 35 l 453 147 b 335 85 421 108 382 85 b 244 238 271 85 244 126 l 244 379 b 510 758 439 508 510 622 b 338 942 510 879 443 942 b 124 679 218 942 124 861 l 124 396 l 10 315 l 47 242 l 125 296 l 125 214 b 301 -11 125 79 171 -11 z m 244 688 b 342 864 244 822 288 864 b 415 757 383 864 415 840 b 244 479 415 651 374 568 z "},"℮":{"ha":1036,"x_min":0,"x_max":0,"o":"m 518 -24 b 903 169 683 -24 810 43 l 857 179 b 519 15 776 69 650 15 b 238 190 413 15 238 68 l 238 372 b 282 417 238 414 238 417 l 939 417 b 983 461 983 417 983 419 b 518 872 983 697 774 872 b 54 424 251 872 54 674 b 518 -24 54 175 251 -24 z m 282 456 b 238 500 238 456 238 458 l 238 674 b 519 833 238 763 364 833 b 801 674 675 833 801 763 l 801 500 b 757 456 801 458 801 456 z "}}}
